SplineFontDB: 3.0
FontName: LibHandDis-Regular
FullName: LibHandDis Regular
FamilyName: LibHandDis
Weight: Regular
Copyright: Copyright (c) 2017, Stewart C. Russell - scruss.com, @scruss
UComments: "2017-02-17: Created with FontForge (http://fontforge.org)+AAoACgAA-Based on Disjoint Library Hand, from J C Dana's A Library Primer (Library Bureau, Chicago, 1899 - https://archive.org/details/primerlibrary00danarich)"
FontLog: "2017-02-18 - scruss+AAoA - initial version from scan, plus crude punctuation+AAoACgAA-2017-02-19 - scruss+AAoA - cleanups and kerning (still rough)+AAoA "
Version: 000.200
ItalicAngle: 0
UnderlinePosition: -100
UnderlineWidth: 50
Ascent: 800
Descent: 200
InvalidEm: 0
LayerCount: 2
Layer: 0 0 "Back" 1
Layer: 1 0 "Fore" 0
XUID: [1021 132 1422713231 12361768]
StyleMap: 0x0000
FSType: 0
OS2Version: 0
OS2_WeightWidthSlopeOnly: 0
OS2_UseTypoMetrics: 1
CreationTime: 1487390491
ModificationTime: 1487521967
PfmFamily: 81
TTFWeight: 400
TTFWidth: 5
LineGap: 90
VLineGap: 90
OS2TypoAscent: 0
OS2TypoAOffset: 1
OS2TypoDescent: 0
OS2TypoDOffset: 1
OS2TypoLinegap: 90
OS2WinAscent: 0
OS2WinAOffset: 1
OS2WinDescent: 0
OS2WinDOffset: 1
HheadAscent: 0
HheadAOffset: 1
HheadDescent: 0
HheadDOffset: 1
OS2Vendor: 'PfEd'
Lookup: 258 0 0 "Pairwise Positioning (kerning) in Latin lookup 0" { "Pairwise Positioning (kerning) in Latin lookup 0-1" [150,15,2] } ['kern' ('DFLT' <'dflt' > 'latn' <'dflt' > ) ]
MarkAttachClasses: 1
DEI: 91125

StartChar: e
Encoding: 101 101 0
Width: 465
VWidth: 250
Flags: W
HStem: 197 59<170.65 333.111> 210 97<343.276 382.971> 367 26<139.479 319.002> 523 52<163.819 295.934>
VStem: 55 59<355.485 478.619> 339 58<393.5 472.089>
LayerCount: 2
Back
Fore
SplineSet
225 521 m 0x3c
 186 515 148 500 125 466 c 0
 119 457 114 444 114 433 c 0
 114 423 117 414 126 408 c 0
 143 397 172 393 204 393 c 0
 246 393 290 400 315 405 c 0
 333 409 339 416 339 426 c 0
 339 440 325 459 316 474 c 0
 295 508 279 523 246 523 c 0
 240 523 233 522 225 521 c 0x3c
114 350 m 1
 136 287 190 256 250 256 c 0xbc
 270 256 290 259 311 266 c 0
 334 274 348 292 369 303 c 0
 374 306 380 307 385 307 c 0
 400 307 416 297 416 278 c 0
 416 244 363 217 336 210 c 0x7c
 306 203 270 197 234 197 c 0xbc
 181 197 129 210 99 252 c 0
 72 290 55 348 55 402 c 0
 55 429 59 455 68 478 c 0
 90 532 167 575 232 575 c 0
 250 575 267 571 282 564 c 0
 331 539 378 486 391 433 c 0
 393 424 397 410 397 398 c 0
 397 389 395 380 388 375 c 0
 377 368 355 366 335 366 c 0
 321 366 308 367 299 367 c 0
 237 366 174 361 114 350 c 1
EndSplineSet
Validated: 1
EndChar

StartChar: E
Encoding: 69 69 1
Width: 546
VWidth: 250
Flags: W
HStem: 206 55<134.148 500.72> 510 47<137.244 308.027> 803 54<125.529 461.916> 844 20G<100 116>
VStem: 71 46<562.24 793.238> 79 49<263.682 499.125>
LayerCount: 2
Back
Fore
SplineSet
136 262 m 1xe4
 228 262 329 260 421 260 c 0
 428 260 441 261 454 261 c 0
 478 261 503 257 503 237 c 0
 503 235 503 233 502 231 c 0
 497 209 462 206 435 206 c 0
 426 206 419 206 413 206 c 2
 412 206 l 2
 331 206 250 209 170 210 c 2
 170 210 163 210 152 210 c 0
 129 210 92 213 86 231 c 0
 80 248 79 269 79 290 c 0xe4
 79 326 84 365 84 396 c 0
 84 496 75 596 71 696 c 0
 70 726 49 773 49 809 c 0
 49 823 52 835 60 844 c 0
 74 860 91 864 109 864 c 0xd8
 123 864 139 862 154 861 c 0
 227 858 299 857 372 857 c 0
 378 857 388 857 400 857 c 0
 427 857 463 854 463 829 c 0
 463 803 401 804 384 803 c 0
 363 802 342 802 320 802 c 0
 277 802 234 803 191 803 c 2
 190 803 l 2
 189 803 187 803 186 803 c 0
 163 803 134 802 124 778 c 0
 115 756 113 730 113 703 c 0
 113 669 118 645 118 616 c 0
 118 610 117 601 117 592 c 0xe8
 117 580 118 567 127 562 c 0
 134 558 145 557 156 557 c 0
 185 557 248 559 269 559 c 0
 284 559 309 558 309 538 c 0
 309 519 287 514 273 512 c 0
 265 510 254 510 241 510 c 0
 234 510 226 510 218 510 c 0
 185 510 149 508 137 488 c 0
 131 478 130 467 130 455 c 0
 130 449 130 444 130 438 c 0
 130 435 130 433 130 430 c 0
 129 413 128 380 128 362 c 0
 128 326 133 298 136 262 c 1xe4
EndSplineSet
Validated: 1
EndChar

StartChar: W
Encoding: 87 87 2
Width: 871
VWidth: 250
Flags: W
HStem: 199 31G<275 297.5 607 635.5> 794 20G<70 87 433 453> 815 20G<795 805>
LayerCount: 2
Back
Fore
SplineSet
623 338 m 1
 641 406 666 473 688 540 c 0
 703 584 717 627 729 671 c 0
 742 717 748 772 770 815 c 0
 776 826 789 835 801 835 c 0
 809 835 817 830 820 819 c 0
 822 813 822 807 822 800 c 0
 822 761 798 713 788 680 c 0
 754 570 709 465 676 355 c 0
 666 323 657 209 614 209 c 0
 612 209 609 208 607 209 c 0
 566 220 569 304 562 338 c 0
 536 466 508 597 459 717 c 1
 451 717 l 1
 418 637 399 556 371 474 c 0
 354 426 324 375 314 326 c 0
 309 298 319 199 276 199 c 0
 274 199 271 200 269 200 c 0
 217 210 230 292 219 330 c 0
 201 392 171 451 149 511 c 0
 128 570 114 634 81 688 c 0
 71 705 43 751 43 783 c 0
 43 796 48 806 60 811 c 0
 64 813 68 814 72 814 c 0
 102 814 110 758 120 737 c 0
 162 649 194 556 230 466 c 0
 236 452 251 366 273 366 c 0
 274 366 276 366 277 367 c 0
 300 378 306 435 312 457 c 0
 338 548 371 638 393 729 c 0
 399 752 415 825 451 825 c 0
 455 825 458 825 462 823 c 0
 492 811 502 744 511 717 c 0
 540 627 571 539 585 445 c 0
 590 411 589 356 623 338 c 1
EndSplineSet
Validated: 1
EndChar

StartChar: w
Encoding: 119 119 3
Width: 749
VWidth: 250
Flags: W
HStem: 195 108<212.934 263.925> 207 21G<586 596.5> 474 62<375.975 406.352> 507 20G<652.5 676.5>
VStem: 626 66<401.897 520.704>
LayerCount: 2
Back
Fore
SplineSet
388 474 m 1x68
 348 408 327 335 299 264 c 0
 288 237 284 198 248 195 c 0
 246 195 245 195 243 195 c 0
 212 195 203 228 191 252 c 0
 160 312 120 369 81 424 c 0
 71 438 47 464 47 486 c 0
 47 492 49 497 53 502 c 0
 58 509 64 511 70 511 c 0
 88 511 107 489 117 478 c 0
 154 436 173 389 202 342 c 0
 209 330 224 303 241 303 c 0
 242 303 242 304 243 304 c 0
 260 306 272 342 279 355 c 0
 303 400 325 448 347 494 c 0
 359 519 373 536 389 536 c 0
 399 536 409 530 421 515 c 0
 432 502 442 488 452 474 c 0
 469 451 487 430 505 408 c 0
 529 380 556 351 560 313 c 1
 615 317 616 431 626 474 c 0xa8
 632 497 638 527 667 527 c 0x18
 686 527 692 515 692 500 c 0
 692 484 685 464 682 453 c 0
 668 397 660 341 646 285 c 0
 640 261 635 229 614 214 c 0
 608 210 600 207 593 207 c 0
 579 207 566 215 558 227 c 0
 537 262 522 300 499 334 c 0
 466 382 425 425 392 474 c 1
 388 474 l 1x68
EndSplineSet
Validated: 1
EndChar

StartChar: U
Encoding: 85 85 4
Width: 658
VWidth: 250
Flags: W
HStem: 204 60<245.764 426.942> 830 14G<77 86 543.5 572.5>
VStem: 51 57<596.687 848.219> 63 57<468.541 838.422> 517 68<533.594 836.338> 536 49<338.424 660.383>
LayerCount: 2
Back
Fore
SplineSet
71 849 m 0xe0
 73 850 76 850 78 850 c 0
 94 850 103 833 108 820 c 0xe0
 119 786 120 746 120 709 c 0
 120 703 120 697 120 692 c 0
 120 620 121 546 128 474 c 0
 131 445 128 414 139 387 c 0
 162 331 242 276 301 266 c 0
 309 264 318 264 326 264 c 0
 348 264 371 269 392 275 c 0
 438 288 492 304 521 346 c 0
 534 365 536 391 536 415 c 0
 536 425 536 436 536 445 c 0xd4
 536 515 536 585 529 655 c 0
 527 676 517 723 517 765 c 0
 517 807 526 843 561 844 c 2
 562 844 l 2
 583 844 586 826 586 808 c 0
 586 802 585 796 585 791 c 0xc8
 585 733 590 676 590 618 c 0
 590 551 588 483 585 416 c 0
 585 411 585 405 585 400 c 0
 585 397 585 395 585 392 c 0
 585 368 584 343 573 322 c 0
 540 259 446 224 380 209 c 0
 365 206 350 204 335 204 c 0
 229 204 120 282 86 379 c 0
 65 439 63 513 63 581 c 0
 63 598 63 614 63 630 c 0xd4
 63 687 56 743 51 799 c 0
 51 803 51 807 51 811 c 0
 51 827 54 844 71 849 c 0xe0
EndSplineSet
Validated: 1
EndChar

StartChar: backslash
Encoding: 92 92 5
Width: 419
VWidth: 250
Flags: W
HStem: 825 20G<74.5 92.5>
LayerCount: 2
Back
Fore
SplineSet
56 836 m 0
 60 840 64 842 68 843 c 0
 71 844 73 845 76 845 c 0
 109 845 132 767 141 744 c 0
 153 715 201 597 212 567 c 0
 221 544 229 520 238 497 c 0
 261 433 307 321 340 264 c 0
 348 250 364 227 372 204 c 0
 375 195 377 185 377 176 c 0
 377 165 374 155 364 148 c 0
 362 146 359 145 357 144 c 0
 355 143 352 143 350 143 c 0
 317 143 290 224 280 246 c 0
 231 356 143 612 83 718 c 0
 74 734 57 759 48 783 c 0
 45 792 43 800 43 808 c 0
 43 818 47 828 56 836 c 0
EndSplineSet
Validated: 1
EndChar

StartChar: S
Encoding: 83 83 6
Width: 561
VWidth: 250
Flags: W
HStem: 209 61<216.126 385.298> 844 56<144.111 360.612>
VStem: 49 53<679.806 803.736> 450 57<337.701 475.341>
LayerCount: 2
Back
Fore
SplineSet
157 896 m 0
 173 899 192 900 211 900 c 0
 267 900 330 889 376 874 c 0
 388 870 432 849 432 829 c 0
 432 824 430 819 424 815 c 0
 420 812 413 811 407 811 c 0
 384 811 351 827 334 831 c 0
 304 838 269 844 235 844 c 0
 166 844 102 821 102 735 c 0
 102 683 148 653 190 636 c 0
 272 603 372 605 441 543 c 0
 485 504 507 446 507 390 c 0
 507 314 466 241 380 221 c 0
 355 215 313 209 275 209 c 0
 250 209 226 211 211 219 c 0
 179 235 150 272 125 297 c 0
 110 312 61 361 61 395 c 0
 61 405 65 414 76 420 c 0
 80 423 84 423 88 423 c 0
 119 423 141 352 157 334 c 0
 194 295 253 270 308 270 c 0
 363 270 414 295 437 355 c 0
 443 371 448 390 449 408 c 0
 449 410 450 413 450 415 c 0
 450 465 412 499 371 524 c 0
 290 574 160 546 93 626 c 0
 64 660 49 708 49 754 c 0
 49 819 81 882 157 896 c 0
EndSplineSet
Validated: 1
EndChar

StartChar: j
Encoding: 106 106 7
Width: 399
VWidth: 250
Flags: W
HStem: 27 43<125.135 234.843> 535 20G<291 309.5> 681 56<262.364 325.883>
VStem: 39 84<77.4781 144.812> 253 78<259.524 549.404> 261 66<220.718 490.592 683.279 735.517> 278 58<114.236 307.508>
LayerCount: 2
Back
Fore
SplineSet
284 736 m 0xf4
 288 737 292 737 295 737 c 0
 314 737 327 723 327 708 c 0
 327 698 320 688 305 683 c 0
 301 682 297 681 293 681 c 0
 274 681 261 696 261 711 c 0
 261 721 267 731 284 736 c 0xf4
280 553 m 0
 285 554 289 555 293 555 c 0
 326 555 331 506 331 464 c 0xf8
 331 443 330 424 330 414 c 0
 330 345 325 393 325 324 c 0
 325 313 326 303 326 292 c 0
 327 246 336 224 336 178 c 2
 336 162 l 2
 334 111 322 56 266 37 c 0
 251 32 235 28 217 27 c 0
 204 26 192 26 179 26 c 0
 163 26 148 26 134 27 c 0
 117 27 97 35 86 44 c 0
 72 56 39 101 39 129 c 0
 39 136 40 141 45 145 c 0
 52 151 67 157 80 157 c 0
 86 157 90 156 94 153 c 0
 112 140 108 109 123 93 c 0
 138 77 157 70 177 70 c 0
 213 70 251 94 264 129 c 0
 275 158 278 189 278 219 c 0xf2
 278 256 271 271 268 308 c 0
 263 382 263 340 260 414 c 0
 259 430 253 462 253 492 c 0xf8
 253 521 258 547 280 553 c 0
EndSplineSet
Validated: 1
EndChar

StartChar: quotedbl
Encoding: 34 34 8
Width: 293
VWidth: 250
Flags: W
HStem: 618 219<80.2336 105.981 187.234 212.981>
VStem: 62 57<624.611 834.501> 169 57<624.611 834.501>
LayerCount: 2
Back
Fore
SplineSet
187 624 m 0
 172 637 169 652 169 671 c 0
 169 689 172 713 172 742 c 0
 172 760 172 779 168 802 c 0
 168 804 167 807 167 809 c 0
 167 826 178 837 193 837 c 0
 199 837 205 835 211 831 c 0
 222 824 226 816 226 805 c 0
 226 802 226 799 226 796 c 0
 222 766 224 725 220 694 c 0
 216 666 216 618 199 618 c 0
 196 618 192 620 187 624 c 0
80 624 m 0
 65 637 62 652 62 671 c 0
 62 689 65 713 65 742 c 0
 65 760 65 779 61 802 c 0
 61 804 60 807 60 809 c 0
 60 826 71 837 86 837 c 0
 92 837 98 835 104 831 c 0
 115 824 119 816 119 805 c 0
 119 802 118 799 118 796 c 0
 114 766 117 725 113 694 c 0
 109 666 109 618 92 618 c 0
 89 618 85 620 80 624 c 0
EndSplineSet
Validated: 1
EndChar

StartChar: comma
Encoding: 44 44 9
Width: 202
VWidth: 250
Flags: W
HStem: 54 207
VStem: 87 57<102.889 226.834>
LayerCount: 2
Back
Fore
SplineSet
68 61 m 0
 67 67 67 74 67 79 c 0
 67 112 87 131 87 163 c 0
 87 180 81 200 65 227 c 0
 63 230 63 233 63 236 c 0
 63 247 74 258 83 261 c 0
 91 264 99 262 109 256 c 0
 123 247 131 234 137 218 c 0
 142 204 144 189 144 174 c 0
 144 153 140 133 132 118 c 0
 126 106 91 54 75 54 c 0
 72 54 69 55 68 61 c 0
EndSplineSet
Validated: 1
EndChar

StartChar: bracketright
Encoding: 93 93 10
Width: 373
VWidth: 250
Flags: W
HStem: 139 54<97.3672 205.171> 156 62<272.237 330.756> 848 49<38.2764 190.77>
VStem: 205 48<379.457 836.071> 211 45<263 566.563>
LayerCount: 2
Back
Fore
SplineSet
195 158 m 0x68
 171 155 144 142 118 139 c 2
 116 139 l 2
 106 139 96 150 96 163 c 0
 96 189 127 191 145 193 c 0xa8
 172 196 197 203 208 218 c 0
 214 225 216 235 216 246 c 0
 216 252 215 257 214 263 c 2
 212 283 l 2
 212 287 211 291 211 294 c 0
 211 296 211 298 211 300 c 0x68
 211 371 205 518 205 593 c 0
 205 597 205 601 205 605 c 0
 205 626 205 647 205 667 c 0
 205 706 204 744 200 783 c 0
 200 785 199 787 199 789 c 0
 196 819 193 843 156 846 c 0
 142 847 126 848 112 848 c 0
 111 848 109 848 108 848 c 0
 102 848 94 848 86 848 c 0
 65 848 37 850 37 871 c 0
 37 899 150 894 180 897 c 0
 192 898 207 900 222 902 c 0
 231 903 241 904 251 904 c 0
 274 904 298 899 298 878 c 0
 298 860 265 850 255 839 c 0
 249 832 248 823 248 815 c 0
 248 811 248 808 248 804 c 0
 252 753 253 696 253 639 c 0
 253 615 253 593 253 569 c 0x70
 253 517 253 466 256 419 c 0
 258 392 261 295 264 264 c 0
 265 251 267 240 272 229 c 0
 277 219 286 218 295 218 c 0
 298 218 301 218 304 218 c 0
 317 218 330 216 332 192 c 0
 332 190 332 189 332 187 c 0
 332 162 310 159 288 157 c 0
 280 156 273 156 266 156 c 0
 248 156 231 158 212 158 c 0
 207 158 201 158 195 158 c 0x68
EndSplineSet
Validated: 1
EndChar

StartChar: z
Encoding: 122 122 12
Width: 490
VWidth: 250
Flags: W
HStem: 198 58<165.83 418.344> 472 61<99.3757 278.593> 482 45<126.987 280>
LayerCount: 2
Back
Fore
SplineSet
280 482 m 1xa0
 250 482 219 482 189 479 c 0
 172 477 147 472 126 472 c 0
 116 472 107 473 99 476 c 0
 87 481 81 491 81 502 c 0
 81 513 88 524 99 529 c 0
 107 532 116 533 126 533 c 0xc0
 139 533 153 531 164 531 c 0
 215 531 266 527 317 527 c 0
 338 527 376 524 376 495 c 0
 376 465 337 436 317 420 c 0
 264 379 194 325 164 264 c 1
 203 259 244 256 284 256 c 2
 358 256 l 2
 367 256 378 256 389 256 c 0
 406 256 423 255 435 249 c 0
 443 245 446 240 446 234 c 0
 446 221 430 206 419 202 c 0
 405 198 391 197 376 197 c 0
 359 197 341 198 325 198 c 2
 144 198 l 2
 139 198 132 198 124 198 c 0
 98 198 65 201 59 223 c 0
 58 227 57 230 57 234 c 0
 57 265 90 293 111 311 c 0
 168 361 238 419 280 482 c 1xa0
EndSplineSet
Validated: 1
EndChar

StartChar: hyphen
Encoding: 45 45 13
Width: 591
VWidth: 250
Flags: W
HStem: 355 70<139.406 508.469> 357 61<132.89 372.309>
LayerCount: 2
Back
Fore
SplineSet
430 426 m 0x80
 473 426 514 424 514 391 c 0
 514 357 445 356 422 356 c 0
 416 356 408 355 402 355 c 0x80
 349 355 347 357 294 357 c 2
 286 357 l 1
 239 355 228 354 182 352 c 0
 169 351 151 349 132 349 c 0
 105 349 76 357 76 386 c 0
 76 409 99 434 122 435 c 0
 144 435 160 420 182 419 c 0
 192 419 203 418 213 418 c 0
 216 418 218 418 220 418 c 0x40
 298 423 296 425 376 425 c 2
 390 425 l 2
 398 425 413 426 430 426 c 0x80
EndSplineSet
Validated: 1
EndChar

StartChar: A
Encoding: 65 65 14
Width: 761
VWidth: 250
Flags: W
HStem: 198 21G<89 110 667 678> 446 47<256.237 415.983> 829 20G<359 381>
VStem: 57 97<238.375 302.666> 632 85<202.649 278.805>
LayerCount: 2
Back
Fore
SplineSet
370 758 m 1
 349 752 341 731 332 713 c 0
 308 667 295 616 272 569 c 0
 266 557 252 532 252 514 c 0
 252 509 253 504 256 501 c 0
 261 495 270 493 281 493 c 0
 290 493 298 494 304 494 c 0
 345 497 387 504 428 507 c 0
 441 508 464 509 469 524 c 0
 470 526 470 529 470 532 c 0
 470 551 448 575 440 589 c 0
 409 642 398 704 370 758 c 1
354 848 m 0
 356 848 358 849 360 849 c 0
 402 849 439 747 449 717 c 0
 495 578 580 447 661 326 c 0
 675 306 717 261 717 230 c 0
 717 217 710 207 691 201 c 0
 686 199 681 198 675 198 c 0
 659 198 642 206 632 219 c 0
 619 238 618 264 608 285 c 0
 586 331 558 381 525 420 c 0
 501 449 460 457 418 457 c 0
 375 457 330 449 296 446 c 0
 293 446 290 445 286 445 c 0
 279 445 271 446 264 446 c 0
 249 446 235 444 224 435 c 0
 189 404 171 334 154 293 c 0
 145 270 127 201 93 201 c 0
 85 201 77 204 67 213 c 0
 60 220 57 229 57 239 c 0
 57 279 101 339 114 363 c 0
 178 478 223 605 276 725 c 0
 291 757 315 839 354 848 c 0
EndSplineSet
Validated: 1
EndChar

StartChar: J
Encoding: 74 74 15
Width: 442
VWidth: 250
Flags: W
HStem: 213 64<123.935 241.673> 834 20G<315 339.5>
VStem: 51 61<289.581 390.647> 283 53<519.166 780.91> 297 54<337.818 688.285>
LayerCount: 2
Back
Fore
SplineSet
275 851 m 0xf0
 285 852 305 854 325 854 c 0
 354 854 386 850 394 835 c 0
 396 831 398 827 398 823 c 0
 398 801 354 795 343 784 c 0
 337 778 336 768 336 758 c 0xf0
 336 751 337 743 337 737 c 0
 341 655 351 571 351 488 c 0
 351 442 347 395 338 350 c 0
 325 285 286 221 213 215 c 0
 203 214 192 213 181 213 c 0
 151 213 121 217 99 237 c 0
 76 257 51 306 51 347 c 0
 51 371 60 392 82 403 c 0
 88 406 96 408 104 408 c 0
 115 408 126 404 130 395 c 0
 131 392 132 388 132 385 c 0
 132 367 112 348 112 328 c 0
 112 325 112 320 113 317 c 0
 124 288 149 277 175 277 c 0
 212 277 252 299 269 326 c 0
 291 361 297 405 297 451 c 0xe8
 297 512 285 577 283 630 c 0
 281 674 286 724 273 766 c 0
 263 799 200 784 200 819 c 0
 200 852 254 848 275 851 c 0xf0
EndSplineSet
Validated: 1
EndChar

StartChar: Q
Encoding: 81 81 16
Width: 790
VWidth: 250
Flags: W
HStem: 204 53<292.124 429.243 534.187 668.296> 227 88<436.752 518.975> 321 41<293.258 417.341> 840 64<278.579 432.714>
VStem: 48 54<431.952 712.902> 430 103<262.439 304.717> 568 49<385.366 650.603>
LayerCount: 2
Back
Fore
SplineSet
325 838 m 0x7e
 261 829 177 796 139 741 c 0
 114 706 110 659 106 618 c 0
 104 597 102 577 102 556 c 0
 102 470 125 390 197 331 c 0
 206 324 214 320 223 320 c 0
 231 320 239 323 247 328 c 0
 285 350 315 362 351 362 c 0
 369 362 389 358 411 351 c 0
 433 344 458 315 481 315 c 0
 482 315 484 316 485 316 c 0
 545 326 566 442 567 490 c 0
 567 494 568 497 568 501 c 0
 568 632 512 840 353 840 c 0
 344 840 335 839 325 838 c 0x7e
325 319 m 0
 310 316 285 300 285 285 c 0
 285 280 288 274 296 269 c 0
 311 260 337 257 361 257 c 0xbe
 380 257 398 259 411 263 c 0
 424 267 430 275 430 283 c 0
 430 291 425 299 415 305 c 0
 399 315 366 321 342 321 c 0
 335 321 330 320 325 319 c 0
366 903 m 0
 369 904 373 904 377 904 c 0
 418 904 480 859 506 836 c 0
 588 760 617 648 617 538 c 0
 617 494 612 450 605 408 c 0
 600 376 586 346 563 323 c 0
 553 313 533 300 533 284 c 0
 533 281 534 279 535 276 c 0
 542 260 563 254 587 254 c 0
 617 254 652 263 666 274 c 0
 680 285 685 304 697 317 c 0
 703 324 712 331 721 331 c 0
 726 331 730 328 735 324 c 0
 742 317 745 309 745 299 c 0
 745 265 707 222 683 213 c 0
 659 204 628 200 597 200 c 0
 570 200 543 203 522 208 c 0
 506 212 493 226 477 227 c 0
 476 227 474 227 473 227 c 0x7e
 457 227 439 217 424 214 c 0
 395 209 360 204 326 204 c 0
 294 204 262 208 238 222 c 0
 107 296 48 427 48 568 c 0
 48 588 50 609 52 630 c 0
 59 686 66 738 104 783 c 0
 175 868 266 879 366 903 c 0
EndSplineSet
Validated: 1
EndChar

StartChar: greater
Encoding: 62 62 17
Width: 456
VWidth: 250
Flags: W
HStem: 549 20G<68.5 83>
VStem: 319 79<341.866 401.931>
LayerCount: 2
Back
Fore
SplineSet
59 550 m 0
 58 553 58 555 58 557 c 0
 58 566 64 569 73 569 c 0
 93 569 126 553 133 550 c 0
 199 522 263 493 327 459 c 0
 349 447 387 437 395 410 c 0
 397 404 398 397 398 391 c 0
 398 363 382 334 360 318 c 0
 301 274 228 254 166 214 c 0
 152 205 111 165 83 165 c 0
 76 165 69 168 64 174 c 0
 61 178 60 183 60 188 c 0
 60 211 95 235 109 244 c 0
 163 278 222 299 278 328 c 0
 293 336 319 356 319 375 c 0
 319 376 319 376 319 377 c 0
 316 398 273 415 257 424 c 0
 208 452 157 476 109 505 c 0
 92 515 64 529 59 550 c 0
EndSplineSet
Validated: 1
EndChar

StartChar: nine
Encoding: 57 57 18
Width: 454
VWidth: 250
Flags: W
HStem: 214 69<172.987 307.85> 408 58<160.4 308.776> 659 70<132.717 255.324>
VStem: 48 58<516.607 632.39> 345 54<320.393 488.726>
LayerCount: 2
Back
Fore
SplineSet
176 657 m 0
 130 650 106 615 106 577 c 0
 106 556 114 534 129 515 c 0
 157 480 195 466 236 466 c 0
 249 466 262 468 275 470 c 0
 308 477 328 502 328 531 c 0
 328 542 325 553 319 564 c 0
 292 613 250 659 193 659 c 0
 188 659 182 658 176 657 c 0
164 727 m 0
 171 728 178 729 185 729 c 0
 245 729 296 682 331 638 c 0
 382 574 399 500 399 422 c 0
 399 400 397 378 395 355 c 0
 391 317 380 264 348 238 c 0
 323 218 277 217 246 215 c 0
 241 215 237 214 232 214 c 0
 181 214 142 235 108 276 c 0
 99 287 80 308 80 325 c 0
 80 327 81 328 81 330 c 0
 84 344 98 350 111 350 c 0
 118 350 125 348 130 344 c 0
 146 332 154 312 172 301 c 0
 193 289 217 283 240 283 c 0
 289 283 334 310 344 367 c 0
 345 371 345 374 345 377 c 0
 345 407 317 408 290 408 c 0
 288 408 285 408 283 408 c 2
 280 408 l 2
 209 408 151 409 99 466 c 0
 66 503 48 548 48 592 c 0
 48 655 85 713 164 727 c 0
EndSplineSet
Validated: 1
EndChar

StartChar: k
Encoding: 107 107 19
Width: 461
VWidth: 250
Flags: W
HStem: 194 21G<119.5 132.5 383 393.5> 515 20G<332 344> 780 20G<64 92.5>
VStem: 81 70<199.232 374.364>
LayerCount: 2
Back
Fore
SplineSet
135 420 m 1
 195 446 243 493 300 523 c 0
 308 527 325 535 339 535 c 0
 349 535 357 530 357 518 c 0
 357 467 252 463 252 409 c 0
 252 390 275 377 287 366 c 0
 324 334 360 300 394 264 c 0
 404 254 418 234 418 218 c 0
 418 210 415 203 406 198 c 0
 401 195 396 194 391 194 c 0
 375 194 361 207 352 219 c 0
 317 263 277 301 243 346 c 0
 233 360 220 389 200 389 c 0
 198 389 195 388 193 387 c 0
 155 374 147 345 147 311 c 0
 147 286 151 259 151 237 c 0
 151 215 143 194 122 194 c 0
 117 194 112 195 106 197 c 0
 76 210 83 286 81 313 c 0
 73 432 74 551 60 671 c 0
 58 684 50 722 50 753 c 0
 50 778 55 798 73 800 c 0
 74 800 75 800 76 800 c 0
 109 800 109 735 112 713 c 0
 126 617 113 513 135 420 c 1
EndSplineSet
Validated: 1
EndChar

StartChar: parenright
Encoding: 41 41 20
Width: 304
VWidth: 250
Flags: W
VStem: 196 55<370.831 596.468>
LayerCount: 2
Back
Fore
SplineSet
99 112 m 0
 99 151 196 381 196 495 c 0
 196 501 195 506 195 511 c 0
 179 672 103 762 53 863 c 0
 42 885 37 899 37 906 c 0
 37 909 38 911 40 911 c 0
 66 911 237 680 251 501 c 0
 251 496 251 491 251 485 c 0
 251 352 144 99 108 99 c 0
 104 99 99 104 99 112 c 0
EndSplineSet
Validated: 1
EndChar

StartChar: slash
Encoding: 47 47 21
Width: 353
VWidth: 250
Flags: W
HStem: 835 20G<265 278.5>
VStem: 46 260
LayerCount: 2
Back
Fore
SplineSet
276 855 m 0
 281 855 286 854 290 853 c 0
 302 849 306 837 306 822 c 0
 306 791 288 746 282 729 c 0
 272 700 234 579 223 549 c 0
 214 526 206 501 197 478 c 0
 174 414 138 299 126 234 c 0
 123 218 120 191 112 168 c 0
 104 147 92 130 72 130 c 0
 71 130 70 130 69 130 c 0
 66 130 64 130 62 131 c 0
 50 135 46 148 46 164 c 0
 46 196 63 242 68 259 c 0
 102 374 200 628 222 747 c 0
 225 765 227 795 236 819 c 0
 243 839 254 854 276 855 c 0
EndSplineSet
Validated: 1
EndChar

StartChar: eight
Encoding: 56 56 22
Width: 449
VWidth: 250
Flags: W
HStem: 212 66<183.082 310.9> 463 82<163.781 240.526> 663 62<135.079 256.899>
VStem: 48 66<567.38 641.037> 75 66<316.45 440.93> 266 83<568.647 654.239> 329 72<295.262 407.495>
LayerCount: 2
Back
Fore
SplineSet
191 661 m 0xf4
 162 657 124 645 115 614 c 0
 114 610 114 606 114 603 c 0
 114 571 158 545 188 545 c 0
 190 545 193 546 195 546 c 0
 241 553 266 586 266 615 c 0
 266 640 248 663 209 663 c 0
 203 663 197 662 191 661 c 0xf4
191 461 m 0
 158 452 141 409 141 372 c 0
 141 357 144 344 149 334 c 0
 167 300 214 278 257 278 c 0
 268 278 279 280 289 283 c 0
 314 290 329 327 329 356 c 0xea
 329 363 328 370 326 375 c 0
 312 416 257 463 208 463 c 0
 202 463 197 462 191 461 c 0
154 723 m 0
 163 725 173 725 183 725 c 0
 252 725 349 690 349 617 c 0xf4
 349 612 349 606 348 601 c 0
 343 576 333 557 314 541 c 0
 305 533 286 525 286 511 c 0
 286 510 287 508 287 507 c 0
 294 481 345 457 363 437 c 0
 388 410 401 371 401 334 c 0
 401 281 374 231 314 218 c 0
 297 214 276 212 254 212 c 0
 208 212 158 221 129 245 c 0
 92 276 75 342 75 394 c 0xea
 75 403 75 412 76 420 c 0
 80 452 128 481 128 507 c 0
 128 521 72 554 62 569 c 0
 52 584 48 599 48 614 c 0xf0
 48 667 103 714 154 723 c 0
EndSplineSet
Validated: 1
EndChar

StartChar: q
Encoding: 113 113 23
Width: 450
VWidth: 250
Flags: W
HStem: 185 61<152.407 263.518> 478 64<156.94 272.214>
VStem: 56 62<282.513 435.721> 308 62<86.3147 210> 316 66<64.6218 184.054> 326 62<318.024 448.554>
LayerCount: 2
Back
Fore
SplineSet
197 476 m 0xe4
 144 466 118 411 118 358 c 0
 118 301 148 246 206 246 c 0
 214 246 222 247 230 249 c 0
 279 260 326 337 326 396 c 0
 326 408 324 418 320 428 c 0
 305 461 257 478 218 478 c 0
 210 478 203 477 197 476 c 0xe4
308 210 m 1xf0
 269 201 228 185 189 185 c 0
 162 185 134 193 110 215 c 0
 74 248 56 306 56 363 c 0
 56 452 101 542 193 542 c 0
 242 542 279 512 324 502 c 0
 327 501 330 501 333 501 c 0
 341 501 349 503 356 503 c 0
 364 503 372 501 378 493 c 0
 386 482 388 465 388 448 c 0xe4
 388 431 386 412 386 399 c 0
 386 304 370 268 370 186 c 0xf0
 371 144 382 134 382 84 c 0
 382 31 369 32 316 7 c 1xe8
 308 210 l 1xf0
EndSplineSet
Validated: 1
EndChar

StartChar: semicolon
Encoding: 59 59 24
Width: 212
VWidth: 250
Flags: W
HStem: 436 58<63.1713 125.838>
VStem: 61 67<439.237 492.922> 99 57<102.889 226.834>
LayerCount: 2
Back
Fore
SplineSet
80 61 m 0xa0
 79 67 78 74 78 79 c 0
 78 112 99 131 99 163 c 0
 99 180 93 200 77 227 c 0
 75 230 75 233 75 236 c 0
 75 247 86 258 95 261 c 0
 103 264 111 262 121 256 c 0
 135 247 143 234 149 218 c 0
 154 204 156 189 156 174 c 0
 156 153 152 133 144 118 c 0
 138 106 103 54 87 54 c 0
 84 54 81 55 80 61 c 0xa0
83 494 m 0
 86 495 90 496 93 496 c 0
 112 496 128 478 128 461 c 0
 128 452 123 444 112 439 c 0
 107 437 102 436 97 436 c 0
 77 436 61 452 61 468 c 0xc0
 61 478 67 488 83 494 c 0
EndSplineSet
Validated: 1
EndChar

StartChar: i
Encoding: 105 105 25
Width: 200
VWidth: 250
Flags: W
HStem: 213 21G<103 114> 514 20G<88 97.5> 666 58<64.1713 126.838>
VStem: 62 67<669.237 722.922> 66 51<292.822 529.713> 67 76<243.834 461.625>
LayerCount: 2
Back
Fore
SplineSet
84 724 m 0xf0
 87 725 91 726 94 726 c 0
 113 726 129 708 129 691 c 0
 129 682 124 674 113 669 c 0
 108 667 103 666 98 666 c 0
 78 666 62 682 62 698 c 0
 62 708 68 718 84 724 c 0xf0
78 530 m 0
 83 533 86 534 90 534 c 0
 105 534 115 516 117 501 c 0xe8
 125 431 130 361 139 291 c 0
 140 281 143 268 143 255 c 0
 143 240 139 226 128 218 c 0
 122 214 117 213 111 213 c 0
 95 213 80 226 77 242 c 0
 69 281 67 328 67 373 c 0xe4
 67 403 68 433 68 460 c 0
 68 468 66 483 66 496 c 0xe8
 66 510 69 524 78 530 c 0
EndSplineSet
Validated: 1
EndChar

StartChar: zero
Encoding: 48 48 26
Width: 452
VWidth: 250
Flags: W
HStem: 210 70<203.033 307.837> 658 60<141.355 252.701>
VStem: 54 61<407.277 631.369> 334 63<310.581 541.467>
LayerCount: 2
Back
Fore
SplineSet
181 657 m 0
 123 649 123 595 117 548 c 0
 116 540 115 531 115 522 c 0
 115 430 162 280 263 280 c 0
 269 280 274 280 280 281 c 0
 318 287 327 356 332 387 c 0
 334 397 334 409 334 421 c 0
 334 514 289 658 194 658 c 0
 190 658 185 658 181 657 c 0
157 715 m 0
 169 718 180 718 191 718 c 0
 320 718 397 551 397 421 c 0
 397 392 394 365 386 342 c 0
 373 303 375 231 325 217 c 0
 308 212 292 210 276 210 c 0
 131 210 54 409 54 532 c 0
 54 606 75 697 157 715 c 0
EndSplineSet
Validated: 1
EndChar

StartChar: x
Encoding: 120 120 27
Width: 521
VWidth: 250
Flags: W
HStem: 197 15G<131.5 155.5 435.5 447.5> 322 204<244 343.5>
VStem: 183 96<355.715 401.013>
LayerCount: 2
Back
Fore
SplineSet
323 525 m 0
 326 526 331 526 335 526 c 0
 352 526 372 519 372 502 c 0
 372 471 331 435 311 418 c 0
 301 410 279 398 279 383 c 0
 279 365 306 352 319 344 c 0
 364 317 411 295 451 259 c 0
 463 248 478 231 478 216 c 0
 478 207 473 199 459 194 c 0
 454 192 450 191 445 191 c 0
 426 191 407 205 393 217 c 0
 360 244 298 322 253 322 c 0
 235 322 224 298 216 285 c 0
 198 253 177 197 134 197 c 0
 129 197 123 198 117 200 c 0
 105 204 101 213 101 224 c 0
 101 232 104 241 108 248 c 0
 123 274 183 324 183 361 c 0
 183 364 183 368 182 371 c 0
 163 427 84 429 54 474 c 0
 48 483 45 490 45 496 c 0
 45 508 56 512 70 512 c 0
 86 512 106 506 117 498 c 0
 139 482 185 424 216 424 c 0
 218 424 219 424 220 424 c 0
 267 434 273 512 323 525 c 0
EndSplineSet
Validated: 1
EndChar

StartChar: V
Encoding: 86 86 28
Width: 697
VWidth: 250
Flags: W
HStem: 205 105<351.652 398.969> 826 20G<74.5 81.5>
VStem: 559 90<741 797.884>
LayerCount: 2
Back
Fore
SplineSet
68 844 m 0
 71 845 73 846 76 846 c 0
 87 846 96 836 102 828 c 0
 123 799 131 760 150 729 c 0
 212 626 259 516 317 412 c 0
 330 389 346 317 373 310 c 0
 374 310 376 310 377 310 c 0
 389 310 396 325 401 334 c 0
 418 362 430 394 444 424 c 0
 488 527 515 638 559 741 c 0
 571 769 581 830 620 831 c 0
 621 831 620 831 621 831 c 0
 642 831 649 821 649 805 c 0
 649 773 619 722 610 704 c 0
 550 582 523 449 462 326 c 0
 446 295 426 218 389 208 c 0
 382 206 376 205 370 205 c 0
 319 205 316 277 298 317 c 0
 240 447 169 574 96 696 c 0
 82 719 44 770 44 807 c 0
 44 823 50 836 68 844 c 0
EndSplineSet
Validated: 1
EndChar

StartChar: quotesingle
Encoding: 39 39 29
Width: 204
VWidth: 250
Flags: W
HStem: 630 207
VStem: 84 57<678.889 802.834>
LayerCount: 2
Back
Fore
SplineSet
65 637 m 0
 64 643 64 650 64 655 c 0
 64 688 84 707 84 739 c 0
 84 756 78 776 62 803 c 0
 60 806 60 809 60 812 c 0
 60 823 71 834 80 837 c 0
 88 840 96 838 106 832 c 0
 120 823 128 810 134 794 c 0
 139 780 141 765 141 750 c 0
 141 729 137 709 129 694 c 0
 123 682 88 630 72 630 c 0
 69 630 66 631 65 637 c 0
EndSplineSet
Validated: 1
EndChar

StartChar: at
Encoding: 64 64 30
Width: 652
VWidth: 250
Flags: W
HStem: 215 69<219.102 446.613> 360 51<233.274 365.389> 363 61<490.236 521.259> 562 49<279.539 401.723> 786 67<238.992 405.971>
VStem: 55 67<403.982 651.464> 162 57<426.663 510.658> 527 68<423.237 645.309>
LayerCount: 2
Back
Fore
SplineSet
343 561 m 0xdf
 300 554 250 533 227 493 c 0
 221 483 219 474 219 465 c 0
 219 432 255 411 290 411 c 0
 294 411 298 411 302 412 c 0
 347 419 403 443 421 489 c 0
 423 494 423 498 423 502 c 0
 423 534 380 562 350 562 c 0
 347 562 345 561 343 561 c 0xdf
417 592 m 0
 445 577 473 548 480 489 c 0
 482 472 480 446 490 432 c 0
 495 426 502 421 511 424 c 0
 525 425 527 499 527 535 c 0
 527 611 502 680 441 741 c 0
 410 772 356 786 310 786 c 0
 305 786 300 785 295 784 c 0
 175 762 122 652 122 522 c 0
 122 438 151 357 211 311 c 0
 238 291 285 284 329 284 c 0
 357 284 384 287 404 291 c 0
 423 295 456 312 476 312 c 0
 482 312 487 310 490 306 c 0
 497 297 500 289 500 281 c 0
 500 249 456 220 425 215 c 0
 407 212 389 212 372 212 c 0
 344 212 316 215 288 215 c 0
 277 215 264 213 251 213 c 0
 239 213 229 214 219 218 c 0
 156 245 96 329 74 392 c 0
 61 428 55 470 55 513 c 0
 55 608 83 711 133 778 c 0
 168 825 198 841 258 850 c 0
 269 852 281 853 291 853 c 0
 355 853 417 849 466 804 c 0
 550 728 595 635 595 534 c 0
 595 495 587 453 581 431 c 0
 580 427 577 404 575 398 c 0
 567 371 556 363 535 363 c 0
 533 363 532 363 530 363 c 0xbf
 486 363 459 374 440 419 c 1
 414 410 402 386 379 373 c 0
 362 363 337 363 317 361 c 0
 305 360 290 360 276 360 c 0
 249 360 222 362 202 376 c 0
 175 395 162 427 162 460 c 0
 162 497 177 535 202 557 c 0
 242 592 272 611 315 611 c 0
 346 611 383 610 417 592 c 0
EndSplineSet
Validated: 1
EndChar

StartChar: braceleft
Encoding: 123 123 31
Width: 427
VWidth: 250
Flags: W
HStem: 140 61<228.826 346.483> 464 60<78.3757 155.716> 821 60<192.381 308.057>
VStem: 113 51<644.806 792.929> 150 50<231.773 433.07> 157 47<524.653 637.795> 166 45<290.507 455.478>
LayerCount: 2
Back
Fore
SplineSet
335 836 m 0xf0
 335 822 328 810 316 809 c 0
 314 809 311 808 309 808 c 0
 289 808 262 821 246 821 c 0
 245 821 245 821 244 821 c 0
 188 815 184 791 169 760 c 0
 166 753 164 745 164 736 c 0xf0
 164 689 204 619 204 545 c 0
 204 540 204 536 204 531 c 0xe4
 203 517 195 506 187 497 c 1
 194 490 201 480 206 469 c 0
 210 449 211 431 211 413 c 0xe2
 211 363 200 321 200 289 c 0
 200 273 202 260 210 249 c 0
 228 223 237 201 282 201 c 0
 286 201 290 202 294 202 c 0
 311 203 341 226 363 226 c 0
 373 226 381 222 385 209 c 0
 386 206 386 203 386 201 c 0
 386 168 320 146 298 141 c 0
 295 141 292 140 289 140 c 0
 240 140 184 189 163 221 c 0
 153 238 150 260 150 282 c 0xe8
 150 328 165 378 166 399 c 0
 166 402 166 405 166 409 c 0xe2
 166 425 164 445 156 456 c 0
 150 463 140 465 128 464 c 0
 122 462 111 460 104 459 c 0
 95 458 86 457 78 457 c 0
 58 457 42 463 42 489 c 0
 44 528 99 523 132 524 c 0
 152 525 157 541 157 559 c 0xe4
 157 571 154 584 152 593 c 0
 145 615 113 687 113 744 c 0
 113 757 114 769 118 779 c 0
 131 815 185 873 228 881 c 0
 230 881 233 881 236 881 c 0
 263 881 335 867 335 836 c 0xf0
EndSplineSet
Validated: 1
EndChar

StartChar: d
Encoding: 100 100 32
Width: 641
VWidth: 250
Flags: W
HStem: 189 63<147.066 302.634> 196 64<477.489 592.652> 505 52<178.879 335.106> 788 20G<381.5 398.5>
VStem: 55 48<297.085 434.883> 354 62<575.658 802.665>
LayerCount: 2
Back
Fore
SplineSet
247 505 m 0xbc
 189 499 123 458 107 400 c 0
 104 390 103 380 103 369 c 0
 103 312 142 252 202 252 c 0
 205 252 207 252 210 252 c 0
 257 256 328 271 356 313 c 0
 368 331 375 371 375 407 c 0
 375 432 372 455 363 468 c 0
 348 490 286 505 255 505 c 0
 252 505 249 505 247 505 c 0xbc
368 803 m 0
 374 807 379 808 384 808 c 0
 413 808 416 747 416 708 c 0
 416 695 416 685 416 680 c 0
 416 591 418 501 424 412 c 0
 427 374 424 327 454 298 c 0
 488 264 531 275 572 260 c 0
 587 255 598 244 598 232 c 0
 598 224 593 216 584 209 c 0
 571 199 556 196 539 196 c 0x7c
 504 196 465 213 446 235 c 0
 435 247 417 289 398 289 c 0
 397 289 397 289 396 289 c 0
 378 287 354 242 338 230 c 0
 300 203 250 189 203 189 c 0
 194 189 185 190 177 191 c 0
 91 200 55 272 55 349 c 0
 55 415 81 484 128 520 c 0
 160 544 207 557 249 557 c 0
 258 557 267 556 276 555 c 0
 293 552 317 536 336 536 c 0
 343 536 350 539 356 545 c 0
 364 554 367 564 367 575 c 0
 367 589 362 605 360 618 c 0
 355 646 354 674 354 702 c 0
 354 714 354 725 354 737 c 0
 354 745 353 755 353 765 c 0
 353 780 356 796 368 803 c 0
EndSplineSet
Validated: 1
EndChar

StartChar: T
Encoding: 84 84 33
Width: 688
VWidth: 250
Flags: W
HStem: 204 21G<324 354> 817 64<46.9548 277.295> 825 61<124.689 277.295 435.28 626.013> 832 44<132.564 298.718 365.172 532.391>
VStem: 301 70<207.057 349.188> 313 46<263.55 825.382>
LayerCount: 2
Back
Fore
SplineSet
495 884 m 0x94
 507 886 520 886 533 886 c 0
 544 886 554 885 565 885 c 0
 576 885 593 887 607 887 c 0
 617 887 627 887 634 883 c 0
 643 879 647 870 647 862 c 0
 647 850 639 838 627 834 c 0
 606 827 581 825 555 825 c 0xa4
 508 825 461 832 434 832 c 2
 433 832 l 2
 430 832 425 832 421 832 c 0
 401 832 374 831 367 815 c 0
 361 802 359 785 359 766 c 0x94
 359 736 364 703 364 680 c 2
 364 350 l 2
 364 333 371 295 371 262 c 0
 371 232 365 206 343 204 c 0
 341 204 340 204 338 204 c 0
 310 204 301 226 301 254 c 0x98
 301 288 314 331 314 350 c 0
 314 369 315 390 315 409 c 0
 315 504 310 600 310 696 c 0
 310 712 313 738 313 763 c 0
 313 788 310 813 299 826 c 0
 293 833 286 835 278 835 c 0
 263 835 245 827 232 825 c 0xa4
 197 820 159 817 123 817 c 0
 113 817 102 818 92 818 c 0
 78 819 55 818 46 830 c 0
 41 836 39 840 39 845 c 0
 39 872 112 881 129 881 c 0xc4
 205 881 283 876 360 876 c 0
 406 876 451 878 495 884 c 0x94
EndSplineSet
Validated: 1
EndChar

StartChar: period
Encoding: 46 46 34
Width: 191
VWidth: 250
Flags: W
HStem: 188 58<66.1713 128.838>
VStem: 64 67<191.237 244.922>
LayerCount: 2
Back
Fore
SplineSet
86 246 m 0
 89 247 93 248 96 248 c 0
 115 248 131 230 131 213 c 0
 131 204 126 196 115 191 c 0
 110 189 105 188 100 188 c 0
 80 188 64 204 64 220 c 0
 64 230 70 240 86 246 c 0
EndSplineSet
Validated: 1
EndChar

StartChar: equal
Encoding: 61 61 35
Width: 624
VWidth: 250
Flags: W
HStem: 275 86<73.6005 169.386> 278 66<119.891 440.528> 282 70<211.728 550.102> 421 86<73.6005 169.386> 424 66<119.891 440.528> 428 70<211.728 550.102>
LayerCount: 2
Back
Fore
SplineSet
554 335 m 0x20
 557 330 558 324 558 320 c 0
 558 286 486 284 463 283 c 0
 457 283 449 282 443 282 c 0x20
 390 282 360 292 307 292 c 0
 304 292 302 292 299 292 c 0
 252 290 217 278 170 278 c 0x40
 157 278 138 275 119 275 c 0
 96 275 74 280 67 299 c 0
 65 303 64 308 64 312 c 0
 64 335 86 360 109 361 c 0x80
 131 361 148 346 170 345 c 0
 182 345 196 344 208 344 c 0x40
 288 344 337 352 417 352 c 0
 421 352 426 352 430 352 c 0
 438 352 453 353 470 353 c 0
 504 353 547 351 554 335 c 0x20
554 481 m 0
 557 476 558 470 558 466 c 0
 558 432 486 430 463 429 c 0
 457 429 449 428 443 428 c 0x04
 390 428 360 438 307 438 c 0
 304 438 302 438 299 438 c 0
 252 436 217 424 170 424 c 0x08
 157 424 138 421 119 421 c 0
 96 421 74 426 67 445 c 0
 65 449 64 454 64 458 c 0
 64 481 86 506 109 507 c 0x10
 131 507 148 492 170 491 c 0
 182 491 196 490 208 490 c 0x08
 288 490 337 498 417 498 c 0
 421 498 426 498 430 498 c 0x04
 438 498 453 499 470 499 c 0
 504 499 547 497 554 481 c 0
EndSplineSet
Validated: 1
EndChar

StartChar: P
Encoding: 80 80 36
Width: 548
VWidth: 250
Flags: W
HStem: 212 21G<99 130.5> 461 47<158.652 396.467> 824 68<138.344 336.023> 825 52<137.396 331.66>
VStem: 60 74<532.655 795.158> 71 63<745.842 820.992> 80 52<215.721 459.339 535.123 743.736> 85 61<213.559 399.979> 443 55<555.367 734.526>
LayerCount: 2
Back
Fore
SplineSet
154 821 m 0xd880
 135 813 134 793 134 775 c 0
 134 773 134 772 134 770 c 0
 134 759 134 749 134 738 c 0
 134 706 134 675 137 643 c 0
 140 610 133 564 153 536 c 0
 167 517 190 517 212 515 c 0
 240 513 273 508 305 508 c 0
 330 508 356 511 377 519 c 0
 425 538 443 586 443 636 c 0
 443 686 425 738 402 770 c 0
 365 820 302 824 244 824 c 0
 236 824 228 824 220 824 c 0xe880
 209 824 196 825 184 825 c 0
 173 825 163 824 154 821 c 0xd880
261 892 m 0
 264 892 267 892 270 892 c 0
 294 892 318 878 340 869 c 0
 367 859 391 853 413 834 c 0
 464 790 498 712 498 638 c 0
 498 584 479 532 434 498 c 0
 390 465 333 461 278 461 c 0
 264 461 250 462 237 462 c 0
 224 462 196 467 175 467 c 0
 163 467 154 465 149 460 c 0
 136 446 132 425 132 402 c 0xe280
 132 359 146 308 146 276 c 0
 146 272 146 268 146 264 c 0
 146 242 144 214 117 212 c 0
 116 212 116 212 115 212 c 0
 83 212 87 258 85 280 c 0xe180
 81 326 80 374 80 421 c 0
 80 455 80 489 80 523 c 0
 80 534 80 546 80 557 c 0xe280
 80 594 80 630 75 667 c 0
 72 693 60 718 60 745 c 0xe880
 60 763 71 778 71 796 c 0
 71 814 44 833 44 852 c 0
 44 857 46 861 50 866 c 0
 60 876 87 877 105 877 c 0
 108 877 111 877 113 877 c 0xd480
 162 877 212 885 261 892 c 0
EndSplineSet
Validated: 1
EndChar

StartChar: v
Encoding: 118 118 37
Width: 504
VWidth: 250
Flags: W
HStem: 197 79<221.866 281.931> 517 20G<65.5 79.5 436 441.5>
LayerCount: 2
Back
Fore
SplineSet
430 536 m 0
 433 537 435 537 437 537 c 0
 446 537 449 531 449 522 c 0
 449 502 433 469 430 462 c 0
 402 396 373 332 339 268 c 0
 327 246 317 208 290 200 c 0
 284 198 277 197 271 197 c 0
 243 197 214 213 198 235 c 0
 154 294 134 367 94 429 c 0
 85 443 45 484 45 512 c 0
 45 519 48 526 54 531 c 0
 58 534 63 535 68 535 c 0
 91 535 115 500 124 486 c 0
 158 432 179 373 208 317 c 0
 216 302 236 276 255 276 c 0
 256 276 256 276 257 276 c 0
 278 279 295 322 304 338 c 0
 332 387 356 438 385 486 c 0
 395 503 409 531 430 536 c 0
EndSplineSet
Validated: 1
EndChar

StartChar: asciitilde
Encoding: 126 126 38
Width: 664
VWidth: 250
Flags: W
HStem: 366 55<387.379 520.328> 496 40<163.17 279.781>
LayerCount: 2
Back
Fore
SplineSet
367 467 m 0
 367 464 390 441 391 438 c 0
 398 422 418 421 442 421 c 0
 472 421 507 430 521 441 c 0
 535 452 540 471 552 484 c 0
 558 491 567 498 576 498 c 0
 581 498 585 495 590 491 c 0
 597 484 600 476 600 466 c 0
 600 432 562 389 538 380 c 0
 514 371 483 367 452 367 c 0
 442 367 431 366 421 366 c 0
 404 366 388 368 377 375 c 0
 347 394 355 406 320 441 c 0
 289 472 281 474 274 481 c 0
 268 487 248 496 222 496 c 0
 211 496 199 495 187 491 c 0
 180 489 149 466 145 463 c 0
 116 443 107 429 87 429 c 0
 66 429 60 436 60 445 c 0
 60 459 76 477 81 481 c 0
 97 494 108 500 117 507 c 0
 141 525 166 531 191 534 c 0
 199 535 212 536 226 536 c 0
 245 536 267 534 283 527 c 0
 304 518 318 510 335 498 c 0
 336 497 367 468 367 467 c 0
EndSplineSet
Validated: 1
EndChar

StartChar: M
Encoding: 77 77 39
Width: 799
VWidth: 250
Flags: W
HStem: 207 11G<389 411.5 698.5 712.5> 792 20G<79.5 94.5> 815 20G<661 685.5>
VStem: 61 52<471.339 684.944> 68 55<231.339 566.661> 600 123<709.966 773.867> 661 54<295.441 704.717> 664 81<227.281 347.949>
LayerCount: 2
Back
Fore
SplineSet
399 305 m 1xf0
 421 366 460 424 488 482 c 0
 527 562 560 645 600 725 c 0
 616 757 639 835 683 835 c 0
 688 835 693 834 699 832 c 0
 718 824 723 799 723 770 c 0xf4
 723 736 716 697 716 676 c 0
 716 625 715 572 715 519 c 0xe2
 715 466 716 414 721 363 c 0
 724 329 745 282 745 245 c 0
 745 239 744 233 743 227 c 0
 738 209 721 197 704 197 c 0
 693 197 683 202 677 215 c 0
 666 240 664 271 664 302 c 0
 664 310 664 319 664 327 c 0xe1
 664 339 664 352 663 363 c 0
 661 379 661 395 661 412 c 0
 661 440 662 467 662 494 c 0
 662 565 662 638 654 708 c 1
 623 681 608 618 592 581 c 0
 554 492 514 399 463 317 c 0
 446 290 433 207 390 207 c 0
 388 207 384 208 382 208 c 0
 352 214 339 276 328 301 c 0
 285 395 240 489 194 581 c 0
 185 599 151 685 126 685 c 0
 125 685 125 685 124 685 c 0
 116 684 113 671 113 655 c 0xf2
 113 631 119 599 119 589 c 0
 119 494 123 400 123 305 c 0
 123 304 123 303 123 301 c 0
 123 281 122 227 101 227 c 0
 98 227 95 228 91 230 c 0
 72 242 68 274 68 304 c 0xe8
 68 322 70 338 70 350 c 0
 70 462 61 576 61 688 c 0
 61 695 61 707 61 721 c 0
 61 759 65 812 94 812 c 0
 95 812 97 811 99 811 c 0
 142 804 162 739 183 708 c 0
 241 622 287 519 330 424 c 0
 348 384 356 325 399 305 c 1xf0
EndSplineSet
Validated: 1
EndChar

StartChar: four
Encoding: 52 52 40
Width: 582
VWidth: 250
Flags: W
HStem: 212 21G<350 363> 390 56<397.382 537.101> 397 52<225.846 317.106> 649 99<292.906 357.5>
VStem: 321 59<455.235 648.866> 323 78<216.709 342.587> 333 57<258.271 373.624>
LayerCount: 2
Back
Fore
SplineSet
146 462 m 1xb8
 319 449 l 1
 321 465 321 481 321 497 c 0
 321 529 319 560 319 593 c 0
 319 608 319 638 305 647 c 0
 302 649 298 649 295 649 c 0
 280 649 266 628 259 618 c 0
 239 586 219 555 194 527 c 0
 175 506 152 490 146 462 c 1xb8
331 747 m 0
 335 748 339 748 342 748 c 0
 373 748 380 710 380 684 c 0
 380 628 380 571 380 515 c 0
 380 504 376 487 376 473 c 0
 376 466 377 460 380 455 c 0xb8
 385 448 392 446 399 446 c 0
 407 446 415 447 422 448 c 0
 433 449 449 451 467 451 c 0
 496 451 526 447 536 428 c 0
 538 424 538 421 538 418 c 0
 538 403 522 392 508 389 c 0
 504 388 498 388 492 388 c 0
 477 388 459 390 442 390 c 0
 423 390 405 386 397 374 c 0
 392 366 390 357 390 346 c 0xd2
 390 319 401 284 401 257 c 0
 401 236 395 220 372 214 c 0
 368 213 365 212 361 212 c 0
 339 212 323 231 323 254 c 0xd4
 323 275 333 314 333 344 c 0xd2
 333 362 329 376 318 383 c 0
 299 394 276 397 251 397 c 0
 209 397 163 387 129 387 c 0
 122 387 114 387 106 387 c 0
 88 387 69 389 57 402 c 0
 51 408 48 415 48 422 c 0
 48 450 84 483 98 499 c 0
 143 550 189 600 229 655 c 0
 254 689 287 736 331 747 c 0
EndSplineSet
Validated: 1
EndChar

StartChar: n
Encoding: 110 110 41
Width: 530
VWidth: 250
Flags: W
HStem: 199 9G<134.5 155 438 452> 492 61<205.148 343.824>
VStem: 101 64<210.092 360.264> 101 57<255.505 433.973> 412 67<189.503 358.852>
LayerCount: 2
Back
Fore
SplineSet
141 481 m 1xe8
 158 534 202 553 252 553 c 0
 297 553 345 537 379 517 c 0
 449 475 455 369 467 296 c 0
 470 277 479 251 479 229 c 0
 479 222 478 215 476 209 c 0
 470 193 458 187 446 187 c 0
 430 187 413 199 412 221 c 0
 408 289 419 375 379 435 c 0
 355 472 314 492 273 492 c 0
 233 492 194 473 173 435 c 0
 161 414 158 389 158 362 c 0xd8
 158 325 164 286 165 254 c 0
 165 250 166 245 166 239 c 0
 166 221 163 199 147 199 c 0
 146 199 145 199 144 199 c 0
 125 201 107 224 104 242 c 0
 101 258 101 275 101 292 c 0
 101 308 101 325 101 341 c 0
 101 362 100 383 95 403 c 0
 87 437 59 449 48 477 c 0
 46 481 46 486 46 489 c 0
 46 502 58 507 72 507 c 0
 82 507 92 505 99 501 c 0
 113 494 126 485 141 481 c 1xe8
EndSplineSet
Validated: 1
EndChar

StartChar: L
Encoding: 76 76 42
Width: 619
VWidth: 250
Flags: W
HStem: 201 67<133.916 296.5> 214 63<266.191 560.388> 214 54<134.174 443.911> 793 20G<102 116.5>
VStem: 67 66<331.314 808.992> 69 57<277.015 410.871>
LayerCount: 2
Back
Fore
SplineSet
96 812 m 0x98
 99 813 101 813 103 813 c 0
 130 813 134 772 134 738 c 0
 134 720 133 704 133 696 c 0
 133 633 133 571 133 508 c 0
 133 476 133 444 133 412 c 0x98
 133 388 126 358 126 330 c 0
 126 317 127 304 132 293 c 0
 141 271 170 268 195 268 c 0
 206 268 216 268 224 268 c 0x94
 314 268 404 276 495 276 c 0
 504 276 513 277 523 277 c 0
 535 277 547 276 557 271 c 0
 568 265 574 255 574 245 c 0
 574 237 570 229 561 223 c 0
 548 216 531 214 515 214 c 0
 504 214 492 215 481 215 c 0
 477 215 474 214 470 214 c 0
 450 213 430 212 410 212 c 0
 372 212 336 214 298 214 c 0x54
 266 214 234 213 203 209 c 0
 186 207 158 201 133 201 c 0x98
 114 201 96 205 86 216 c 0
 72 233 75 259 73 280 c 0
 70 306 69 332 69 359 c 0x94
 69 402 71 445 71 486 c 0
 71 568 67 651 67 733 c 0
 67 736 67 741 67 745 c 0
 67 771 69 806 96 812 c 0x98
EndSplineSet
Validated: 1
EndChar

StartChar: seven
Encoding: 55 55 43
Width: 519
VWidth: 250
Flags: W
HStem: 213 21G<364.5 395.5> 659 56<137.76 366.67>
VStem: 315 70<291.141 521.974> 373 94<614.037 678.5>
LayerCount: 2
Back
Fore
SplineSet
360 719 m 0xd0
 368 720 378 721 390 721 c 0
 419 721 455 715 464 692 c 0
 466 687 467 681 467 676 c 0xd0
 467 644 439 606 428 581 c 0
 400 515 385 447 385 376 c 0
 385 350 413 290 413 250 c 0
 413 230 406 216 385 213 c 0
 384 213 382 213 381 213 c 0
 348 213 334 268 327 293 c 0
 319 324 315 353 315 381 c 0xe0
 315 440 330 497 344 560 c 0
 348 575 373 615 373 639 c 0
 373 645 372 651 367 654 c 0
 360 659 350 660 340 660 c 0
 330 660 319 659 311 659 c 0
 298 659 284 659 269 659 c 0
 230 659 187 657 154 646 c 0
 133 639 111 615 88 615 c 0
 86 615 82 615 80 616 c 0
 61 620 48 646 48 669 c 0
 48 686 56 702 72 706 c 0
 107 714 144 717 181 717 c 0
 216 717 250 715 285 715 c 0
 310 715 336 716 360 719 c 0xd0
EndSplineSet
Validated: 1
EndChar

StartChar: Z
Encoding: 90 90 44
Width: 649
VWidth: 250
Flags: W
HStem: 191 21G<113.5 143.5> 202 48<131.433 415.438> 207 65<318.595 598.531> 218 54<505.359 598.531> 828 46<237.734 461.967> 831 52<190.119 364.672 366.742 508.755>
VStem: 59 71<235 289.943> 510 79<792.608 840>
LayerCount: 2
Back
Fore
SplineSet
172 880 m 0x0b
 192 883 214 883 236 883 c 0x07
 273 883 310 880 345 875 c 0
 351 874 358 874 365 874 c 0x0b
 402 874 450 883 493 883 c 0
 529 883 561 877 582 855 c 0
 587 849 589 843 589 837 c 0
 589 825 582 813 575 803 c 0
 550 767 520 737 492 704 c 0
 410 607 343 501 254 408 c 0
 224 377 130 315 130 266 c 0
 130 253 155 250 180 250 c 0x47
 198 250 216 251 222 252 c 0
 329 262 442 272 550 272 c 2
 551 272 l 2x23
 571 272 604 255 604 238 c 0
 604 231 599 224 584 218 c 0x13
 561 209 533 207 504 207 c 0x23
 475 207 444 209 416 209 c 0
 404 209 393 209 382 208 c 0
 339 203 291 202 247 202 c 0
 244 202 241 202 238 202 c 0x43
 213 202 163 191 124 191 c 0
 103 191 85 194 76 204 c 0
 64 216 59 229 59 241 c 0
 59 276 99 310 123 334 c 0
 228 439 315 559 405 676 c 0
 431 710 458 746 486 778 c 0
 493 785 510 799 510 812 c 0
 510 814 510 816 509 818 c 0
 504 828 484 831 463 831 c 0x87
 441 831 417 828 407 828 c 0
 331 828 251 825 176 814 c 0
 156 811 135 804 114 804 c 0
 98 804 82 808 70 821 c 0
 62 830 59 837 59 843 c 0
 59 875 154 878 172 880 c 0x0b
EndSplineSet
Validated: 1
EndChar

StartChar: D
Encoding: 68 68 45
Width: 650
VWidth: 250
Flags: W
HStem: 206 50<218.184 407.383> 221 35<205.906 301.626> 822 48<172.572 346.604>
VStem: 115 50<553.392 799.575> 144 49<275.474 525.393> 535 56<375.57 616.958>
LayerCount: 2
Back
Fore
SplineSet
202 818 m 0xac
 166 811 165 786 165 756 c 0
 165 754 165 752 165 750 c 0xb4
 165 690 177 629 184 569 c 0
 192 497 185 422 193 350 c 0
 193 347 193 343 193 339 c 0
 193 333 193 326 193 319 c 0
 193 302 194 285 204 275 c 0
 217 261 242 256 269 256 c 0
 313 256 364 268 391 273 c 0
 514 296 535 400 535 511 c 0
 535 665 405 822 247 822 c 0
 232 822 217 821 202 818 c 0xac
189 867 m 0
 206 869 223 870 239 870 c 0
 401 870 536 765 578 601 c 0
 586 568 591 535 591 501 c 0
 591 363 520 226 366 211 c 0
 346 209 323 206 302 206 c 0xb4
 294 206 287 207 280 208 c 0
 263 210 247 221 231 221 c 0x74
 197 220 165 206 131 206 c 0
 129 206 126 206 124 206 c 0
 104 208 55 210 55 239 c 0
 55 286 129 251 139 279 c 0
 143 290 144 302 144 315 c 0xac
 144 346 137 381 136 408 c 0
 133 527 118 647 115 766 c 0
 115 778 114 791 105 800 c 0
 94 810 58 817 58 836 c 0
 58 839 59 843 61 847 c 0
 71 864 101 867 131 867 c 0
 146 867 161 866 173 866 c 0
 179 866 184 866 189 867 c 0
EndSplineSet
Validated: 1
EndChar

StartChar: numbersign
Encoding: 35 35 46
Width: 593
VWidth: 250
Flags: W
HStem: 315 86<60.5026 144.129> 322 70<379.868 537.102> 332 53<224.672 302.081> 484 86<60.5026 156.386> 487 66<106.891 203.297> 500 56<284.192 358.062>
VStem: 84 81<93.2018 195.903> 237 81<93.2018 194.984> 260 85<677.821 775.42> 413 85<676.528 775.42>
LayerCount: 2
Back
Fore
SplineSet
457 562 m 2x06c0
 459 562 l 2
 501 562 545 562 545 529 c 0
 545 495 473 493 450 492 c 0
 444 492 436 491 430 491 c 0
 425 491 420 491 415 491 c 1
 403 457 391 426 379 392 c 1
 387 392 395 392 404 392 c 0
 408 392 413 392 417 392 c 0
 425 392 440 393 457 393 c 2
 459 393 l 2
 501 393 545 393 545 360 c 0
 545 326 473 324 450 323 c 0
 444 323 436 322 430 322 c 0
 402 322 380 324 358 327 c 1
 341 273 325 215 318 175 c 0
 312 141 305 71 264 71 c 0
 263 71 262 71 261 71 c 0
 243 71 237 85 237 104 c 0x4740
 237 137 256 185 260 200 c 0
 270 234 286 280 303 331 c 1
 300 331 297 332 294 332 c 0x22c0
 260 332 232 325 203 321 c 1
 187 268 172 213 165 175 c 0
 159 141 152 71 111 71 c 0
 110 71 109 71 108 71 c 0
 90 71 84 85 84 104 c 0
 84 137 103 185 107 200 c 0
 116 231 129 271 145 317 c 1
 134 316 120 315 106 315 c 0
 79 315 51 323 51 352 c 0
 51 375 73 400 96 401 c 0x82c0
 118 401 135 386 157 385 c 0
 161 385 164 385 168 385 c 0
 180 420 192 455 204 490 c 1
 189 488 174 487 157 487 c 0x2ac0
 144 487 125 484 106 484 c 0
 79 484 51 492 51 521 c 0
 51 544 73 569 96 570 c 0x12c0
 118 570 135 555 157 554 c 0
 169 554 183 553 195 553 c 0
 205 553 215 553 224 553 c 1x0ac0
 240 605 253 653 260 688 c 0
 267 723 269 795 314 796 c 0
 315 796 315 796 316 796 c 0
 338 796 345 782 345 763 c 0
 345 732 326 687 321 670 c 0
 315 652 299 601 284 556 c 1
 315 558 344 560 379 561 c 1
 394 610 407 654 413 688 c 0
 420 723 422 795 467 796 c 0
 468 796 468 796 469 796 c 0
 491 796 498 782 498 763 c 0
 498 732 479 687 474 670 c 0
 468 653 452 605 438 562 c 1
 444 562 450 562 457 562 c 2x06c0
224 385 m 1x2640
 260 386 291 387 323 389 c 1
 335 424 347 461 359 496 c 1
 339 498 319 500 294 500 c 0
 284 500 274 500 265 499 c 1
 251 460 237 425 224 385 c 1x2640
EndSplineSet
Validated: 1
EndChar

StartChar: parenleft
Encoding: 40 40 47
Width: 312
VWidth: 250
Flags: W
VStem: 53 53<429.502 665.496>
LayerCount: 2
Back
Fore
SplineSet
264 111 m 0
 224 111 67 357 55 482 c 0
 54 493 53 505 53 517 c 0
 53 694 170 922 192 922 c 0
 194 922 195 919 195 914 c 0
 195 906 193 893 187 873 c 0
 158 775 106 682 106 545 c 0
 106 531 107 517 108 502 c 0
 116 392 272 154 272 123 c 0
 272 115 269 111 264 111 c 0
EndSplineSet
Validated: 1
EndChar

StartChar: c
Encoding: 99 99 48
Width: 433
VWidth: 250
Flags: W
HStem: 206 62<185.129 339.015> 514 68<153.811 256.903>
VStem: 53 51<337.786 463.779>
LayerCount: 2
Back
Fore
SplineSet
171 579 m 0
 181 581 192 582 203 582 c 0
 246 582 290 563 319 531 c 0
 329 520 343 501 343 484 c 0
 343 477 341 470 334 464 c 0
 327 458 321 456 315 456 c 0
 290 456 269 495 250 505 c 0
 238 511 225 514 213 514 c 0
 167 514 121 474 108 429 c 0
 105 419 104 409 104 400 c 0
 104 322 196 268 269 268 c 0
 272 268 275 268 278 268 c 0
 302 270 331 292 356 292 c 0
 360 292 365 291 369 290 c 0
 382 285 386 279 386 271 c 0
 386 252 355 226 340 218 c 0
 319 207 297 206 274 206 c 0
 270 206 266 206 262 206 c 0
 146 206 53 305 53 409 c 0
 53 445 64 481 89 515 c 0
 110 542 137 571 171 579 c 0
EndSplineSet
Validated: 1
EndChar

StartChar: s
Encoding: 115 115 49
Width: 392
VWidth: 250
Flags: W
HStem: 201 66<139.484 270.584> 529 47<127.701 230.876>
VStem: 51 61<450.364 511.805> 287 54<284.213 369.639>
LayerCount: 2
Back
Fore
SplineSet
119 571 m 0
 135 574 155 576 176 576 c 0
 212 576 251 570 275 555 c 0
 289 547 303 526 303 508 c 0
 303 499 300 491 291 485 c 0
 287 482 282 481 278 481 c 0
 270 481 262 485 256 491 c 0
 244 502 237 519 221 525 c 0
 214 528 206 529 196 529 c 0
 160 529 112 511 112 478 c 0
 112 444 166 443 189 440 c 0
 226 435 274 431 302 403 c 0
 328 376 341 344 341 313 c 0
 341 262 307 215 246 204 c 0
 235 202 224 201 213 201 c 0
 169 201 124 218 96 252 c 0
 87 263 71 284 71 302 c 0
 71 308 74 314 79 319 c 0
 84 323 88 325 93 325 c 0
 111 325 127 298 139 288 c 0
 156 275 183 267 209 267 c 0
 244 267 279 281 286 317 c 0
 287 320 287 324 287 327 c 0
 287 352 267 373 246 383 c 0
 229 392 211 394 192 394 c 0
 176 394 160 393 144 393 c 0
 123 393 102 395 82 408 c 0
 61 421 51 446 51 471 c 0
 51 515 79 563 119 571 c 0
EndSplineSet
Validated: 1
EndChar

StartChar: g
Encoding: 103 103 50
Width: 492
VWidth: 0
Flags: W
HStem: 4 49<160.515 379.514> 107 57<170.347 360.199> 118 56<191.888 411> 192 68<195.203 328.989> 510 57<170.549 305.432>
VStem: 52 53<335.421 448.293> 100 70<168.598 203.5> 369 62<297.187 440.209>
LayerCount: 2
Back
Fore
SplineSet
218 508 m 0x9d
 163 495 105 450 105 391 c 0
 105 383 107 375 109 366 c 0
 122 315 214 260 272 260 c 0
 278 260 283 261 288 262 c 0
 345 274 369 317 369 363 c 0
 369 432 316 510 242 510 c 0
 234 510 226 510 218 508 c 0x9d
140 242 m 1
 119 286 64 305 55 358 c 0
 53 369 52 379 52 389 c 0xdd
 52 493 148 567 249 567 c 0
 272 567 295 563 317 555 c 0
 393 528 431 453 431 379 c 0
 431 310 397 242 329 213 c 0
 291 197 246 200 206 193 c 0
 204 193 200 192 197 192 c 0
 195 192 195 192 193 192 c 0
 182 192 170 192 170 181 c 0
 170 170 186 168 194 168 c 0
 223 166 251 164 280 164 c 0
 281 164 282 164 283 164 c 0xdb
 324 164 365 174 396 174 c 0
 426 174 447 164 447 125 c 0
 447 102 440 77 424 54 c 0
 413 39 396 29 379 22 c 0
 342 7 303 4 262 4 c 0
 259 4 257 4 254 4 c 0
 215 4 172 5 136 22 c 0
 113 33 79 48 79 73 c 0
 79 77 80 82 82 86 c 0
 88 96 96 100 105 100 c 0
 127 100 154 77 169 70 c 0
 190 61 221 54 254 54 c 0
 274 54 292 53 308 53 c 0
 341 53 367 56 386 82 c 0
 387 88 392 100 387 106 c 0
 379 115 371 118 361 118 c 0xbd
 344 118 322 109 287 109 c 0
 261 109 234 107 209 107 c 0
 185 107 163 108 148 116 c 0
 118 131 100 162 100 191 c 0xdb
 100 215 112 229 140 242 c 1
EndSplineSet
Validated: 1
EndChar

StartChar: o
Encoding: 111 111 51
Width: 471
VWidth: 250
Flags: W
HStem: 192 70<171.193 305.349> 534 47<149.881 287.384>
VStem: 54 48<335.549 486.795> 354 62<309.861 458.081>
LayerCount: 2
Back
Fore
SplineSet
186 529 m 0
 127 512 102 466 102 417 c 0
 102 343 158 262 237 262 c 0
 247 262 257 264 268 267 c 0
 329 283 354 330 354 381 c 0
 354 454 301 534 222 534 c 0
 211 534 198 533 186 529 c 0
202 579 m 0
 211 580 219 581 227 581 c 0
 342 581 416 465 416 360 c 0
 416 283 377 211 285 195 c 0
 273 193 262 192 251 192 c 0
 136 192 54 301 54 412 c 0
 54 463 66 515 108 548 c 0
 135 569 169 574 202 579 c 0
EndSplineSet
Validated: 1
EndChar

StartChar: F
Encoding: 70 70 52
Width: 517
VWidth: 250
Flags: W
HStem: 205 21G<100.5 113> 774 58<212.861 468.538> 784 52<107.237 427.776>
VStem: 49 57<557.734 770.828> 85 60<209.333 333.47> 89 33<310.458 479.688>
LayerCount: 2
Back
Fore
SplineSet
106 766 m 1xb0
 106 718 113 670 114 622 c 0
 114 618 114 614 114 609 c 0
 114 592 115 569 122 558 c 0
 138 534 272 560 272 522 c 0
 272 501 249 498 231 498 c 0
 225 498 220 499 216 499 c 0
 176 499 129 497 124 453 c 0
 123 444 122 435 122 426 c 0xa4
 122 377 139 324 143 276 c 0
 144 266 145 255 145 244 c 0
 145 229 142 216 126 209 c 0
 120 206 115 205 111 205 c 0
 90 205 85 233 85 264 c 0xa8
 85 292 89 323 89 334 c 0xa4
 89 445 68 556 60 667 c 0
 58 698 49 735 49 769 c 0
 49 782 50 795 54 807 c 0
 62 834 98 836 124 836 c 0
 127 836 131 836 134 836 c 2
 135 836 l 2xb0
 216 836 296 832 377 832 c 0
 383 832 393 832 404 832 c 0
 431 832 464 830 469 811 c 0
 470 808 470 805 470 803 c 0
 470 776 427 774 403 774 c 0
 399 774 397 774 394 774 c 0xd0
 334 774 271 784 210 784 c 0
 197 784 185 783 172 782 c 0
 149 780 128 769 106 766 c 1xb0
EndSplineSet
Validated: 1
EndChar

StartChar: bar
Encoding: 124 124 53
Width: 211
VWidth: 250
Flags: W
HStem: 851 20G<89 111>
VStem: 52 74<634.406 865.979> 86 72<122.665 358.927>
LayerCount: 2
Back
Fore
SplineSet
77 868 m 0xc0
 82 870 87 871 91 871 c 0
 131 871 125 779 126 752 c 0xc0
 127 721 132 594 132 562 c 0
 132 537 132 512 132 487 c 0
 132 419 138 298 149 233 c 0
 152 217 158 190 158 166 c 0
 158 143 152 122 131 116 c 0
 128 115 126 115 124 115 c 0
 85 115 88 211 86 237 c 0xa0
 78 357 83 628 63 748 c 0
 60 766 52 795 52 821 c 0
 52 842 57 860 77 868 c 0xc0
EndSplineSet
Validated: 1
EndChar

StartChar: K
Encoding: 75 75 54
Width: 607
VWidth: 250
Flags: W
HStem: 211 10G<99.5 111.5 503 521> 803 20G<536 545>
VStem: 63 62<214.922 418.396 692.406 772.366> 83 49<513.755 705.919>
LayerCount: 2
Back
Fore
SplineSet
524 821 m 0xd0
 530 822 534 823 538 823 c 0
 552 823 557 817 557 809 c 0
 557 790 531 756 520 745 c 0
 462 687 399 638 339 585 c 0
 326 574 283 553 283 533 c 0
 283 506 326 479 341 462 c 0
 395 401 447 337 511 287 c 0
 527 274 554 248 554 227 c 0
 554 217 548 208 532 202 c 0
 528 200 523 200 519 200 c 0
 487 200 460 243 441 264 c 0
 393 319 342 374 294 429 c 0
 277 448 250 482 223 484 c 2
 222 484 l 2
 204 484 186 465 174 453 c 0
 128 409 124 363 124 307 c 0
 124 298 125 289 125 280 c 0
 125 273 125 265 125 255 c 0
 125 234 122 211 101 211 c 0
 98 211 96 211 92 212 c 0
 70 218 63 238 63 261 c 0xe0
 63 287 71 317 73 334 c 0
 80 384 83 437 83 491 c 0
 83 547 80 603 74 655 c 0
 72 673 67 697 67 720 c 0
 67 744 73 766 92 778 c 0
 98 782 105 785 112 785 c 0
 119 785 125 782 127 774 c 0
 134 750 137 721 137 691 c 0
 137 650 133 608 133 573 c 0
 133 568 132 558 132 548 c 0
 132 531 135 513 148 513 c 0
 149 513 149 513 150 513 c 0
 176 517 202 551 223 566 c 0
 292 616 356 677 417 737 c 0
 444 764 485 813 524 821 c 0xd0
EndSplineSet
Validated: 1
EndChar

StartChar: question
Encoding: 63 63 55
Width: 521
VWidth: 250
Flags: W
HStem: 189 60<96.1875 157.857> 499 52<204.731 370.391> 502 60<160.239 315.671> 815 61<73.2253 356.419> 816 52<74.6895 344.4>
VStem: 74 66<363.936 490.152> 94 67<191.885 245.833> 411 55<594.03 763.849>
LayerCount: 2
Back
Fore
SplineSet
54 835 m 0x95
 64 857 94 868 118 868 c 2
 126 868 l 2x8d
 150 868 192 872 241 875 c 0
 243 875 278 876 293 876 c 0
 296 876 298 876 299 876 c 0
 307 874 327 868 342 861 c 0
 368 849 381 844 403 825 c 0
 454 781 466 750 466 676 c 0
 466 622 447 570 402 536 c 0
 358 503 324 499 269 499 c 0xd5
 255 499 241 500 228 500 c 0
 215 500 210 502 189 502 c 0
 177 502 165 496 160 491 c 0
 142 473 138 449 138 431 c 0
 138 420 140 411 140 407 c 0
 140 403 141 388 140 384 c 0
 138 376 139 364 113 357 c 0
 112 357 112 357 111 357 c 0
 81 363 83 392 80 415 c 0
 79 424 74 438 74 455 c 0
 74 476 81 502 109 528 c 0
 138 555 172 562 203 562 c 0xa5
 240 562 273 552 290 552 c 0
 301 552 309 551 316 551 c 0
 325 551 333 552 345 557 c 0
 393 576 411 624 411 674 c 0
 411 688 411 698 411 706 c 0
 411 729 409 738 392 761 c 0
 362 801 341 816 288 817 c 0
 287 817 l 0
 279 817 256 815 240 815 c 0
 237 815 235 815 233 815 c 0xd5
 222 816 196 816 173 816 c 0x8d
 155 816 138 816 133 815 c 0
 109 811 99 815 62 785 c 0
 60 783 59 783 57 783 c 0
 51 783 48 793 48 805 c 0
 48 815 50 826 54 835 c 0x95
94 221 m 0x83
 94 232 106 249 126 249 c 0
 145 249 161 231 161 214 c 0
 161 201 147 189 130 189 c 0
 110 189 94 205 94 221 c 0x83
EndSplineSet
Validated: 1
EndChar

StartChar: l
Encoding: 108 108 56
Width: 205
VWidth: 250
Flags: W
HStem: 208 21G<95.5 127.5> 795 20G<75.5 106>
VStem: 51 74<578.649 810.183> 76 72<214.995 495.136> 76 51<310.201 656.928>
LayerCount: 2
Back
Fore
SplineSet
51 765 m 0xe0
 51 789 61 815 90 815 c 0
 122 815 125 756 125 719 c 0
 125 709 125 701 125 696 c 0xe0
 125 665 127 634 127 602 c 2
 127 527 l 2xc8
 127 459 128 391 139 326 c 0
 142 310 148 283 148 259 c 0
 148 235 141 208 114 208 c 0
 77 208 76 295 76 326 c 0
 76 327 76 329 76 330 c 0
 76 367 76 404 76 441 c 0xd0
 76 525 74 609 62 692 c 0
 59 710 51 739 51 765 c 0xe0
EndSplineSet
Validated: 1
EndChar

StartChar: ampersand
Encoding: 38 38 57
Width: 474
VWidth: 250
Flags: W
HStem: 206 63<124.464 212.004> 523 20G<352.5 382> 649 62<138.424 187.66>
VStem: 54 59<279.022 417.429> 81 56<557.711 648.837> 113 91<458.081 539.155> 189 57<553.893 647.813> 241 69<344.5 398.549>
LayerCount: 2
Back
Fore
SplineSet
155 540 m 1xea
 170 551 189 590 189 618 c 0
 189 636 181 649 159 649 c 0
 157 649 157 649 155 649 c 0
 141 648 137 630 137 613 c 0
 137 600 140 587 141 581 c 0
 144 566 149 554 155 540 c 1xea
155 453 m 1
 143 431 129 410 120 387 c 0
 115 373 113 360 113 345 c 0xf0
 113 323 115 297 131 282 c 0
 141 273 153 269 164 269 c 0
 201 269 241 311 241 350 c 0
 241 357 240 364 237 371 c 0
 230 388 217 402 204 416 c 0xe5
 189 432 177 448 155 453 c 1
150 710 m 0
 152 710 154 711 156 711 c 0
 174 711 187 697 200 686 c 0
 226 663 246 634 246 602 c 0xea
 246 590 243 577 237 564 c 0
 227 544 204 526 204 502 c 0xe4
 204 481 223 459 237 445 c 0
 243 439 250 436 256 436 c 0
 294 436 327 543 378 543 c 0
 386 543 395 540 405 533 c 0
 413 527 420 514 420 503 c 0
 420 497 418 491 412 486 c 0
 381 461 310 442 310 389 c 0
 310 387 311 385 311 383 c 0
 315 337 396 296 421 260 c 0
 424 255 426 251 426 246 c 0
 426 234 415 224 401 221 c 0
 397 220 394 219 391 219 c 0
 345 219 337 303 297 303 c 0
 264 303 267 246 251 229 c 0
 237 214 208 206 178 206 c 0
 138 206 96 218 80 239 c 0
 62 263 54 296 54 329 c 0xf1
 54 362 61 394 73 420 c 0
 84 445 109 476 112 503 c 0
 112 506 113 507 113 510 c 0xe4
 113 552 81 596 81 636 c 0xe8
 81 657 89 677 117 696 c 0
 127 703 139 708 150 710 c 0
EndSplineSet
Validated: 1
EndChar

StartChar: braceright
Encoding: 125 125 58
Width: 437
VWidth: 250
Flags: W
HStem: 132 61<127.943 245.375> 479 59<285.192 350.154> 525 20G<342 361> 811 62<79.338 200.992>
VStem: 218 46<539.234 719.305> 233 48<362.385 473.348 565.585 775.619> 272 52<220.731 360.897>
LayerCount: 2
Back
Fore
SplineSet
42 811 m 0xd8
 45 844 111 871 140 873 c 0
 184 873 247 825 266 792 c 0
 277 774 280 750 280 724 c 0
 280 675 266 621 264 603 c 0
 264 599 264 595 264 590 c 0
 264 567 269 538 293 538 c 0
 294 538 295 538 296 538 c 0xd8
 312 540 333 545 351 545 c 0xb8
 371 545 387 540 392 520 c 0
 392 517 392 514 392 511 c 0
 392 483 363 481 335 479 c 0
 328 479 318 479 311 480 c 0
 299 479 289 475 285 467 c 0
 282 460 281 453 281 444 c 0xd4
 281 432 283 420 285 410 c 0
 291 385 324 322 324 268 c 0
 324 256 322 244 318 234 c 0
 302 197 250 134 199 132 c 0
 176 133 102 144 102 180 c 0
 102 198 114 205 127 205 c 0
 147 205 174 193 190 193 c 0
 191 193 192 193 193 193 c 0
 249 199 252 223 267 254 c 0
 271 262 272 269 272 278 c 0xd2
 272 322 233 382 233 468 c 0xd4
 233 482 241 494 247 502 c 1
 238 510 227 519 224 533 c 0
 219 552 218 571 218 590 c 0
 218 639 229 685 229 721 c 0
 229 738 227 753 219 764 c 0
 201 790 192 811 147 811 c 0
 143 811 139 811 135 811 c 0
 118 810 88 787 66 787 c 0
 65 787 65 787 64 787 c 0
 53 787 44 798 42 811 c 0xd8
EndSplineSet
Validated: 1
EndChar

StartChar: f
Encoding: 102 102 59
Width: 380
VWidth: 250
Flags: W
HStem: 197 21G<120 131> 531 21G<213 228> 821 47<171.578 251.367>
VStem: 91 39<587.763 760.132> 94 47<275.828 500.494> 104 63<200.791 393.607>
LayerCount: 2
Back
Fore
SplineSet
179 867 m 0xf0
 184 868 189 868 195 868 c 0
 243 868 332 837 332 787 c 0
 332 782 331 776 329 770 c 0
 325 759 317 756 309 756 c 0
 299 756 287 762 280 770 c 0
 257 795 234 821 209 821 c 0
 194 821 179 812 162 787 c 0
 135 747 137 692 132 647 c 0
 131 639 130 629 130 620 c 0xf0
 130 609 132 599 140 592 c 0
 160 573 251 594 251 552 c 0
 251 534 237 531 219 531 c 0
 207 531 194 532 182 532 c 0
 168 532 156 530 149 522 c 0
 142 513 141 501 141 489 c 0xe8
 141 479 142 470 142 462 c 0
 142 404 149 346 160 289 c 0
 163 275 167 257 167 241 c 0xe4
 167 222 161 204 138 198 c 0
 135 197 132 197 130 197 c 0xf0
 110 197 106 222 104 239 c 0xe4
 99 291 100 345 94 396 c 0xe8
 90 430 97 470 84 502 c 0
 75 523 44 522 40 544 c 0
 40 546 40 547 40 549 c 0
 40 575 84 562 88 589 c 0
 90 603 91 618 91 634 c 0
 91 659 89 686 89 712 c 0
 89 782 100 849 179 867 c 0xf0
EndSplineSet
Validated: 1
EndChar

StartChar: less
Encoding: 60 60 60
Width: 456
VWidth: 250
Flags: W
HStem: 549 20G<360 377.5>
VStem: 59 79<332.069 392.134>
LayerCount: 2
Back
Fore
SplineSet
398 184 m 0
 399 181 399 179 399 177 c 0
 399 168 393 165 384 165 c 0
 364 165 331 181 324 184 c 0
 258 212 194 241 130 275 c 0
 108 287 70 297 62 324 c 0
 60 330 59 337 59 343 c 0
 59 371 75 400 97 416 c 0
 156 460 229 480 291 520 c 0
 305 529 346 569 374 569 c 0
 381 569 388 566 393 560 c 0
 396 556 397 551 397 546 c 0
 397 523 362 499 348 490 c 0
 294 456 235 435 179 406 c 0
 164 398 138 378 138 359 c 0
 138 358 138 358 138 357 c 0
 141 336 184 319 200 310 c 0
 249 282 300 258 348 229 c 0
 365 219 393 205 398 184 c 0
EndSplineSet
Validated: 1
EndChar

StartChar: two
Encoding: 50 50 62
Width: 497
VWidth: 250
Flags: W
HStem: 214 60<135.01 450.943> 227 56<379.984 447.127> 551 21G<99 107.5> 688 57<154.296 288.226>
VStem: 52 73<565.355 658.889> 62 71<253.5 335.911> 336 68<547.712 650.601>
LayerCount: 2
Back
Fore
SplineSet
167 744 m 0xba
 175 745 184 745 192 745 c 0
 285 745 404 677 404 587 c 0
 404 563 395 537 375 511 c 0
 327 447 241 423 184 367 c 0
 169 353 133 327 133 304 c 0
 133 278 179 280 196 278 c 0
 217 275 239 274 260 274 c 0xb6
 309 274 358 280 406 283 c 2
 407 283 l 2
 427 283 454 263 454 245 c 0
 454 238 450 232 439 227 c 0x76
 421 219 400 217 379 217 c 0
 360 217 341 218 322 218 c 0
 313 218 304 218 295 217 c 0
 277 215 259 214 241 214 c 0
 224 214 208 215 192 215 c 0
 170 215 148 219 126 219 c 0
 79 219 62 239 62 268 c 0xb6
 62 287 70 310 82 334 c 0
 130 429 225 453 294 523 c 0
 315 544 336 576 336 607 c 0
 336 612 335 617 334 622 c 0
 324 664 269 688 220 688 c 0
 198 688 178 683 163 673 c 0
 123 645 130 622 125 581 c 0
 123 567 115 551 100 551 c 0
 98 551 95 551 93 552 c 0
 65 561 52 602 52 636 c 0
 52 650 54 662 58 671 c 0
 77 716 121 737 167 744 c 0xba
EndSplineSet
Validated: 1
EndChar

StartChar: G
Encoding: 71 71 63
Width: 701
VWidth: 250
Flags: W
HStem: 211 58<239.012 427.893> 418 56<553.892 645.424> 425 49<385.755 477.719 553 612.062> 802 51<244.276 413.935>
VStem: 47 53<452.827 654.58> 496 57<334.975 421.762>
LayerCount: 2
Back
Fore
SplineSet
553 424 m 1xdc
 553 373 575 334 586 285 c 0
 588 275 591 261 591 248 c 0
 591 239 589 230 585 224 c 0
 580 216 574 213 569 213 c 0
 544 213 524 291 514 291 c 0
 489 291 456 245 433 234 c 0
 392 214 346 216 302 214 c 0
 290 213 277 211 264 211 c 0
 259 211 253 211 248 213 c 0
 224 221 200 245 182 261 c 0
 98 336 61 434 50 544 c 0
 48 561 47 578 47 595 c 0
 47 632 53 668 74 700 c 0
 138 796 230 853 332 853 c 0
 367 853 405 846 442 832 c 0
 466 823 503 830 521 810 c 0
 532 797 544 766 544 741 c 0
 544 721 537 705 516 703 c 0
 515 703 513 703 512 703 c 0
 488 703 481 730 466 745 c 0
 446 765 411 784 384 793 c 0
 366 799 348 802 330 802 c 0
 212 802 100 678 100 565 c 0
 100 459 171 306 277 273 c 0
 287 270 297 269 308 269 c 0
 328 269 349 273 368 276 c 0
 402 282 436 286 460 313 c 0
 472 327 496 366 496 394 c 0
 496 407 491 417 478 422 c 0
 472 424 466 425 460 425 c 0
 445 425 429 420 414 420 c 0
 409 420 405 421 400 422 c 0
 388 425 376 436 376 447 c 0
 376 452 379 457 385 461 c 0
 401 472 424 468 442 470 c 0
 474 473 505 474 537 474 c 0xbc
 552 474 567 474 582 474 c 2
 582 474 584 474 589 474 c 0
 603 474 634 473 646 463 c 0
 652 458 655 451 655 445 c 0
 655 435 649 426 639 422 c 0
 631 419 622 418 613 418 c 0
 593 418 572 423 553 424 c 1xdc
EndSplineSet
Validated: 1
EndChar

StartChar: R
Encoding: 82 82 64
Width: 604
VWidth: 250
Flags: W
HStem: 204 22G<142 151.5 511 529> 557 35<165.883 358.768> 836 59<160.376 372.532>
VStem: 112 69<208.928 488.467> 461 55<638.185 765.101> 474 84<229.828 310.846>
LayerCount: 2
Back
Fore
SplineSet
160 833 m 0xf8
 145 827 143 813 143 799 c 0
 143 793 144 788 144 783 c 0
 144 744 144 706 147 667 c 0
 148 652 146 630 156 617 c 0
 168 602 201 601 218 599 c 0
 245 595 273 592 302 592 c 0
 337 592 372 597 403 611 c 0
 443 629 461 662 461 697 c 0
 461 733 443 771 411 798 c 0
 369 835 286 836 230 836 c 0
 227 836 225 836 222 836 c 0
 212 836 200 837 188 837 c 0
 178 837 168 836 160 833 c 0xf8
201 892 m 0
 217 894 233 895 249 895 c 0
 377 895 513 830 514 688 c 0
 514 678 516 665 516 654 c 0xf8
 516 648 515 643 514 638 c 0
 508 612 466 588 444 575 c 0
 434 569 414 563 414 549 c 0
 414 524 452 500 463 478 c 0
 493 420 514 356 544 297 c 0
 550 285 558 260 558 240 c 0
 558 223 552 209 534 206 c 0
 532 206 530 205 528 205 c 0
 494 205 482 265 474 289 c 0xf4
 452 356 433 419 400 482 c 0
 388 504 369 539 345 549 c 0
 331 555 312 557 293 557 c 0
 263 557 230 552 205 552 c 0
 200 552 193 553 187 553 c 0
 176 553 165 552 160 543 c 0
 157 539 156 533 156 526 c 0
 156 513 160 496 160 486 c 0
 160 433 162 382 168 330 c 0
 171 307 181 278 181 253 c 0
 181 245 181 238 178 231 c 0
 173 218 159 204 144 204 c 0
 140 204 136 205 132 207 c 0
 116 216 112 246 112 276 c 0
 112 302 115 328 115 342 c 0
 112 471 102 600 89 729 c 0
 87 752 89 783 75 803 c 0
 66 816 39 827 39 845 c 0
 39 847 39 850 40 852 c 0
 45 868 68 871 82 874 c 0
 121 882 161 887 201 892 c 0
EndSplineSet
Validated: 1
EndChar

StartChar: one
Encoding: 49 49 65
Width: 210
VWidth: 250
Flags: W
HStem: 211 21G<97.5 111> 718 20G<99 118>
VStem: 60 86<220.601 316.386> 69 70<362.506 730.102> 77 66<266.891 585.737>
LayerCount: 2
Back
Fore
SplineSet
86 734 m 0xd0
 91 737 97 738 101 738 c 0
 135 738 137 666 138 643 c 0
 138 637 139 629 139 623 c 0xd0
 139 570 130 518 130 465 c 0
 130 462 130 460 130 457 c 0
 132 410 143 364 143 317 c 0xc8
 143 304 146 285 146 266 c 0
 146 243 141 221 122 214 c 0
 118 212 113 211 109 211 c 0
 86 211 61 233 60 256 c 0xe0
 60 278 75 295 76 317 c 0
 76 329 77 343 77 355 c 0xc8
 77 435 69 517 69 597 c 0
 69 601 69 606 69 610 c 0
 69 618 68 633 68 650 c 0
 68 684 70 727 86 734 c 0xd0
EndSplineSet
Validated: 1
EndChar

StartChar: asciicircum
Encoding: 94 94 66
Width: 480
VWidth: 250
Flags: W
HStem: 807 79<216.866 276.931>
LayerCount: 2
Back
Fore
SplineSet
399 605 m 0
 378 610 364 638 354 655 c 0
 325 703 327 696 299 745 c 0
 290 761 273 804 252 807 c 0
 251 807 251 807 250 807 c 0
 231 807 211 781 203 766 c 0
 173 710 167 703 133 649 c 0
 124 635 100 600 77 600 c 0
 72 600 67 601 63 604 c 0
 57 609 54 616 54 623 c 0
 54 651 94 692 103 706 c 0
 143 768 149 789 193 848 c 0
 209 870 238 886 266 886 c 0
 272 886 279 885 285 883 c 0
 312 875 322 837 334 815 c 0
 369 751 371 745 399 679 c 0
 402 672 418 639 418 619 c 0
 418 610 415 604 406 604 c 0
 404 604 402 604 399 605 c 0
EndSplineSet
Validated: 1
EndChar

StartChar: O
Encoding: 79 79 67
Width: 649
VWidth: 250
Flags: W
HStem: 215 69<215.102 435.219> 811 67<252.113 381.139>
VStem: 51 67<403.982 647.2> 523 68<409.725 647.695>
LayerCount: 2
Back
Fore
SplineSet
305 809 m 0
 185 787 118 652 118 522 c 0
 118 438 147 357 207 311 c 0
 234 291 281 284 325 284 c 0
 353 284 380 287 400 291 c 0
 462 303 489 361 505 416 c 0
 517 457 523 497 523 535 c 0
 523 611 498 681 437 741 c 0
 406 772 366 811 320 811 c 0
 315 811 310 810 305 809 c 0
268 875 m 0
 279 877 291 878 301 878 c 0
 365 878 412 848 462 804 c 0
 546 728 591 635 591 534 c 0
 591 491 583 446 566 400 c 0
 542 336 499 227 421 215 c 0
 403 212 385 212 368 212 c 0
 340 212 312 215 284 215 c 0
 273 215 260 213 247 213 c 0
 235 213 225 214 215 218 c 0
 152 245 92 329 70 392 c 0
 57 428 51 470 51 513 c 0
 51 608 80 710 129 778 c 0
 164 825 208 866 268 875 c 0
EndSplineSet
Validated: 1
EndChar

StartChar: Y
Encoding: 89 89 68
Width: 674
VWidth: 250
Flags: W
HStem: 831 20G<64 80.5 590 604>
VStem: 358 41<326.339 450.969>
LayerCount: 2
Back
Fore
SplineSet
55 848 m 0
 59 850 62 851 66 851 c 0
 95 851 130 799 145 783 c 0
 194 725 245 669 286 606 c 0
 301 584 329 538 357 533 c 0
 358 533 360 533 361 533 c 0
 383 533 403 569 412 585 c 0
 452 653 496 719 542 783 c 0
 554 800 577 846 603 846 c 0
 605 846 607 846 609 845 c 0
 621 841 626 833 626 823 c 0
 626 795 593 750 584 737 c 0
 539 670 488 608 445 540 c 0
 421 502 399 478 399 436 c 0
 399 432 400 428 400 424 c 0
 404 373 422 325 430 276 c 0
 431 271 431 267 431 262 c 0
 431 244 426 228 408 219 c 0
 403 217 398 215 394 215 c 0
 361 215 361 288 359 309 c 0
 358 320 358 331 358 342 c 0
 358 349 358 355 358 362 c 0
 358 385 357 407 349 429 c 0
 332 473 296 501 266 536 c 0
 216 595 173 657 120 713 c 0
 94 740 66 769 51 803 c 0
 48 811 44 820 44 829 c 0
 44 837 47 843 55 848 c 0
EndSplineSet
Validated: 1
EndChar

StartChar: h
Encoding: 104 104 69
Width: 524
VWidth: 250
Flags: W
HStem: 193 21G<108 121.5> 509 42<183.556 315.707> 806 20G<80.5 93>
VStem: 57 57<583.28 818.711> 74 76<196.969 329.38> 77 59<263.266 459.891> 394 81<197.332 337.338>
LayerCount: 2
Back
Fore
SplineSet
67 819 m 0xf2
 73 823 78 826 83 826 c 0
 103 826 114 790 114 774 c 0xf2
 114 714 123 653 123 593 c 1
 123 593 122 589 122 583 c 0
 122 566 124 535 137 527 c 0
 140 525 143 524 146 524 c 0
 161 524 181 539 193 543 c 0
 212 549 231 551 251 551 c 0
 269 551 286 549 304 546 c 0
 423 523 439 406 460 305 c 0
 464 287 475 255 475 229 c 0
 475 216 472 204 463 197 c 0
 453 189 444 185 436 185 c 0
 411 185 394 216 394 243 c 0
 394 286 392 329 383 371 c 0
 376 405 365 443 340 469 c 0
 314 495 281 509 248 509 c 0
 210 509 174 491 153 453 c 0
 140 430 136 407 136 382 c 0xe6
 136 336 150 287 150 240 c 0
 150 237 150 234 150 231 c 0
 149 209 132 193 111 193 c 0
 105 193 100 195 94 197 c 0
 78 204 74 232 74 262 c 0xea
 74 289 77 317 77 330 c 0xe6
 76 450 73 572 65 692 c 0
 64 707 57 746 57 777 c 0
 57 796 59 813 67 819 c 0xf2
EndSplineSet
Validated: 1
EndChar

StartChar: X
Encoding: 88 88 70
Width: 686
VWidth: 250
Flags: W
HStem: 188 43G<128 141.5 601.5 615.5> 443 110<322.129 375.201> 816 20G<565.5 577.5>
VStem: 306 82<470.403 531.644>
LayerCount: 2
Back
Fore
SplineSet
553 833 m 0
 558 835 563 836 568 836 c 0
 587 836 601 823 601 807 c 0
 601 800 599 792 592 784 c 0
 536 718 487 648 436 577 c 0
 424 560 388 527 388 505 c 0
 388 483 424 458 438 445 c 0
 491 395 550 351 603 301 c 0
 616 289 642 260 642 237 c 0
 642 227 637 218 623 212 c 0
 620 211 617 210 614 210 c 0
 589 210 559 245 545 260 c 0
 498 306 454 356 405 399 c 0
 391 411 371 438 353 443 c 0
 352 443 351 443 350 443 c 0
 329 443 304 393 295 379 c 0
 256 323 223 243 170 199 c 0
 162 192 148 188 135 188 c 0
 121 188 110 193 110 208 c 0
 110 210 110 213 111 215 c 0
 117 245 149 274 168 297 c 0
 187 320 207 342 224 367 c 0
 244 395 306 457 306 493 c 0
 306 518 271 543 256 560 c 0
 203 620 142 671 91 733 c 0
 80 746 43 784 43 810 c 0
 43 816 46 821 50 825 c 0
 54 829 59 831 64 831 c 0
 89 831 121 790 133 778 c 0
 188 723 241 665 292 606 c 0
 302 594 328 553 348 553 c 0
 349 553 350 553 351 553 c 0
 372 559 391 601 402 618 c 0
 436 669 463 723 497 774 c 0
 511 795 527 825 553 833 c 0
EndSplineSet
Validated: 1
EndChar

StartChar: r
Encoding: 114 114 71
Width: 481
VWidth: 250
Flags: W
HStem: 203 21G<161.5 173.5> 513 48<215.94 332.918>
LayerCount: 2
Back
Fore
SplineSet
66 564 m 0
 71 566 74 567 78 567 c 0
 107 567 114 509 136 509 c 0
 158 509 189 540 210 548 c 0
 233 557 255 561 276 561 c 0
 314 561 351 547 387 522 c 0
 405 510 427 489 427 467 c 0
 427 460 425 453 420 446 c 0
 412 435 404 431 397 431 c 0
 371 431 347 487 329 500 c 0
 316 509 301 513 285 513 c 0
 248 513 208 493 189 466 c 0
 177 450 173 430 173 409 c 0
 173 366 191 316 198 280 c 0
 200 269 204 253 204 239 c 0
 204 224 199 211 185 205 c 0
 180 203 176 203 171 203 c 0
 152 203 134 217 128 235 c 0
 113 282 123 337 111 387 c 0
 99 437 67 470 47 515 c 0
 45 520 44 524 44 529 c 0
 44 543 53 558 66 564 c 0
EndSplineSet
Validated: 1
EndChar

StartChar: m
Encoding: 109 109 72
Width: 743
VWidth: 250
Flags: W
HStem: 203 13G<113.5 145.5 638 656.5> 490 52<453.852 563.09> 507 44<214.05 324.932>
VStem: 90 72<212.575 347.411> 90 59<250.774 428.699> 359 66<191.828 460.61> 360 56<240.05 449.179> 618 74<198.237 366.598>
LayerCount: 2
Back
Fore
SplineSet
64 521 m 2xb1
 64 521 64 521 65 521 c 0
 93 521 101 489 124 485 c 0
 138 485 155 503 165 511 c 0
 195 533 218 551 263 551 c 0xb1
 292 551 317 541 342 523 c 0
 355 514 375 490 392 490 c 0
 410 490 433 514 449 522 c 0
 474 534 502 542 531 542 c 0
 562 542 593 532 616 509 c 0
 672 453 668 348 684 276 c 0
 687 263 692 246 692 231 c 0
 692 214 685 199 663 196 c 0
 660 196 658 195 655 195 c 0
 621 195 618 228 618 257 c 2
 618 272 l 2
 618 276 617 280 617 284 c 0
 612 356 603 490 509 490 c 0
 438 487 416 422 416 359 c 0
 416 358 416 357 416 357 c 2xd3
 416 309 424 282 425 238 c 0
 425 213 420 186 395 186 c 0
 363 189 359 245 359 272 c 0
 359 274 359 275 359 276 c 0xc5
 359 279 358 282 358 285 c 0
 358 303 360 326 360 349 c 0
 360 421 350 507 270 507 c 0
 201 507 149 411 149 349 c 0xab
 150 315 162 287 162 249 c 0
 162 226 157 203 134 203 c 0
 93 209 90 250 90 294 c 0
 90 303 90 312 90 321 c 2
 90 339 l 2
 90 372 89 405 80 436 c 0
 75 454 46 483 46 504 c 2
 46 505 l 2
 46 515 54 521 62 521 c 0
 63 521 63 521 64 521 c 2xb1
EndSplineSet
Validated: 1
EndChar

StartChar: y
Encoding: 121 121 73
Width: 537
VWidth: 250
Flags: W
HStem: 531 20G<52.5 66.5 448 458.5>
VStem: 205 58<13.8195 68.3079>
LayerCount: 2
Back
Fore
SplineSet
209 22 m 1
 206 24 205 27 205 32 c 0
 205 56 242 111 260 163 c 0
 266 180 275 197 275 214 c 0
 275 220 274 226 271 233 c 0
 255 268 221 297 195 324 c 0
 157 365 137 394 100 436 c 0
 84 454 37 496 37 525 c 0
 37 529 38 532 39 535 c 0
 43 546 49 551 56 551 c 0
 77 551 117 505 128 494 c 0
 171 451 201 421 238 373 c 0
 258 347 277 303 310 291 c 0
 312 290 313 290 315 290 c 0
 334 290 347 326 352 340 c 0
 372 393 394 445 420 496 c 0
 428 511 440 530 456 530 c 0
 461 530 468 528 474 523 c 0
 479 519 482 511 482 502 c 0
 482 465 444 397 435 373 c 0
 422 339 400 310 385 278 c 0
 352 208 338 185 316 139 c 0
 302 110 278 50 263 27 c 0
 258 19 245 13 234 13 c 0
 221 13 217 17 209 22 c 1
EndSplineSet
Validated: 1
EndChar

StartChar: t
Encoding: 116 116 74
Width: 406
VWidth: 250
Flags: W
HStem: 198 64<204.047 290.431> 522 53<215.752 292.67> 526 34<185.376 259.732> 709 20G<144.5 154>
VStem: 122 55<290.48 383 487 511.469>
LayerCount: 2
Back
Fore
SplineSet
178 560 m 1xb8
 204 561 234 575 261 575 c 0
 267 575 272 574 277 573 c 0
 290 570 303 557 303 545 c 0
 303 539 301 533 293 528 c 0
 286 524 277 522 267 522 c 0xd8
 250 522 231 526 215 526 c 0
 203 526 193 525 185 517 c 0
 179 511 177 499 177 487 c 0
 177 476 178 465 178 457 c 0
 178 438 177 416 177 392 c 0
 177 353 181 311 202 285 c 0
 214 270 232 262 251 262 c 0
 265 262 278 267 288 277 c 0
 299 289 312 319 330 319 c 0
 336 319 341 316 348 308 c 0
 356 298 360 288 360 277 c 0
 360 246 331 215 302 208 c 0
 279 202 255 198 232 198 c 0
 155 198 117 309 117 377 c 0
 117 379 117 381 117 383 c 0
 118 405 122 431 122 456 c 0
 122 471 121 485 116 498 c 0
 104 528 40 504 40 538 c 0
 40 567 104 555 116 577 c 0
 123 589 125 607 125 625 c 0
 125 650 121 676 121 684 c 0
 121 688 120 692 120 697 c 0
 120 707 122 719 130 724 c 0
 136 728 142 729 147 729 c 0
 161 729 172 716 174 700 c 0
 178 667 178 634 178 600 c 0
 178 587 178 573 178 560 c 1xb8
EndSplineSet
Validated: 1
EndChar

StartChar: u
Encoding: 117 117 75
Width: 592
VWidth: 250
Flags: W
HStem: 192 62<156.016 289.643> 209 56<431.583 544.816> 511 20G<57 82>
VStem: 55 61<302.947 497.684> 345 63<363.739 516.392> 350 51<319.283 464.861>
LayerCount: 2
Back
Fore
SplineSet
58 531 m 1xb4
 106 531 115 495 116 453 c 0
 116 450 116 447 116 443 c 0
 116 431 116 417 116 403 c 0
 116 353 120 296 161 272 c 0
 182 260 204 254 224 254 c 0
 294 254 350 322 350 399 c 0
 350 402 350 405 350 408 c 0xb4
 349 422 345 447 345 469 c 0
 345 495 351 518 378 518 c 2
 379 518 l 2
 406 517 408 495 408 474 c 0
 408 471 408 469 408 466 c 0xb8
 408 442 401 399 401 362 c 0
 401 340 404 321 411 309 c 0
 424 288 453 268 478 265 c 0
 480 265 483 264 486 264 c 0
 493 264 502 265 510 265 c 0
 528 265 547 262 547 239 c 0
 547 221 521 216 507 213 c 0
 494 210 483 209 472 209 c 0x74
 441 209 419 221 391 246 c 0
 385 252 377 256 370 256 c 0
 366 256 363 254 359 252 c 0
 331 236 320 208 285 200 c 0
 265 195 238 192 212 192 c 0
 173 192 133 200 109 224 c 0
 86 247 81 282 75 313 c 0
 64 365 55 422 55 477 c 0
 55 495 56 513 58 531 c 1xb4
EndSplineSet
Validated: 1
EndChar

StartChar: bracketleft
Encoding: 91 91 76
Width: 354
VWidth: 250
Flags: W
HStem: 149 50<216.129 312.846> 855 46<154.473 296.377>
VStem: 95 50<579.763 829.575> 136 49<218.474 470.487>
LayerCount: 2
Back
Fore
SplineSet
215 159 m 0xd0
 181 158 157 149 123 149 c 2
 122 149 l 2
 99 149 76 149 76 179 c 0
 76 226 121 194 131 222 c 0
 135 233 136 245 136 258 c 0xd0
 136 289 128 386 127 413 c 0
 123 532 98 677 95 796 c 0
 95 808 94 821 85 830 c 0
 74 840 38 847 38 866 c 0
 38 894 79 897 111 897 c 0
 126 897 141 896 153 896 c 0
 169 896 211 901 245 901 c 0
 274 901 298 897 298 884 c 0
 298 857 250 857 230 855 c 0
 215 854 197 851 182 848 c 0
 146 841 145 816 145 786 c 0
 145 784 145 782 145 780 c 0xe0
 145 720 152 663 159 603 c 0
 167 531 177 365 185 293 c 0
 185 290 185 286 185 282 c 2
 185 262 l 2
 185 245 186 228 196 218 c 0
 209 204 234 199 261 199 c 0
 262 199 263 199 265 199 c 0
 282 199 309 198 313 177 c 0
 313 175 314 174 314 172 c 0
 314 160 304 149 294 149 c 0
 268 149 239 159 215 159 c 0xd0
EndSplineSet
Validated: 1
EndChar

StartChar: three
Encoding: 51 51 77
Width: 437
VWidth: 250
Flags: W
HStem: 214 60<143.186 290.421> 694 51<138.127 231.712>
VStem: 259 70<574.277 667.326> 314 72<297.348 445.027>
LayerCount: 2
Back
Fore
SplineSet
160 744 m 0xe0
 165 745 170 745 175 745 c 0
 235 745 329 692 329 632 c 0xe0
 329 603 296 567 296 537 c 0
 296 534 297 530 298 527 c 0
 308 491 358 477 374 445 c 0
 382 429 386 403 386 375 c 0
 386 325 374 268 352 245 c 0
 335 228 304 219 280 216 c 0
 271 215 260 214 248 214 c 0
 172 214 51 243 51 323 c 0
 51 329 52 335 53 342 c 0
 56 355 66 363 77 363 c 0
 82 363 88 360 93 356 c 0
 110 342 115 318 132 303 c 0
 151 286 188 274 223 274 c 0
 258 274 291 285 303 313 c 0
 310 330 314 347 314 364 c 0xd0
 314 403 297 441 275 474 c 0
 268 484 263 509 250 512 c 0
 249 512 247 512 246 512 c 0
 234 512 220 501 210 496 c 0
 196 490 174 484 153 484 c 0
 132 484 112 490 103 507 c 0
 101 512 99 515 99 519 c 0
 99 536 124 542 140 545 c 0
 184 554 259 557 259 618 c 0
 259 659 219 694 179 694 c 0
 166 694 153 690 141 681 c 0
 125 669 122 628 98 628 c 0
 96 628 93 628 90 629 c 0
 73 634 67 651 67 668 c 0
 67 681 71 695 77 704 c 0
 94 728 132 739 160 744 c 0xe0
EndSplineSet
Validated: 1
EndChar

StartChar: grave
Encoding: 96 96 78
Width: 322
VWidth: 250
Flags: W
HStem: 585 303
VStem: 51 81<801.385 882.669>
LayerCount: 2
Back
Fore
SplineSet
240 661 m 0
 252 640 261 625 261 613 c 0
 261 604 256 596 243 589 c 0
 238 586 234 585 229 585 c 0
 206 585 186 615 176 632 c 0
 173 637 168 644 165 649 c 0
 139 695 155 669 129 715 c 0
 112 745 116 731 91 774 c 0
 85 785 73 800 63 816 c 0
 56 828 51 842 51 854 c 0
 51 865 56 876 68 883 c 0
 75 887 83 888 91 888 c 0
 107 888 124 881 132 868 c 0
 143 849 139 827 149 807 c 0
 155 797 161 784 167 774 c 0
 187 740 197 733 212 707 c 2
 219 696 l 2
 223 689 232 676 240 661 c 0
EndSplineSet
Validated: 1
EndChar

StartChar: p
Encoding: 112 112 79
Width: 506
VWidth: 250
Flags: W
HStem: 185 64<192.378 357.859> 498 59<172.223 337.476> 519 20G<64 76.5>
VStem: 115 55<15.4204 200.336> 392 60<285.938 434.131>
LayerCount: 2
Back
Fore
SplineSet
256 497 m 0xd8
 227 494 185 491 163 469 c 0
 151 457 146 433 146 406 c 0
 146 357 162 298 183 278 c 0
 205 257 246 249 283 249 c 0
 299 249 314 251 326 253 c 0
 369 261 392 317 392 358 c 0
 392 361 391 364 391 367 c 0
 384 438 345 498 272 498 c 0
 267 498 261 498 256 497 c 0xd8
174 203 m 1
 169 166 168 171 168 133 c 0
 168 75 170 113 170 60 c 0
 170 38 167 12 146 12 c 2
 141 12 l 1
 119 25 115 59 115 91 c 0
 115 107 116 123 116 134 c 0
 114 265 111 270 96 400 c 0
 91 446 64 467 47 507 c 0
 45 511 45 516 45 520 c 0
 45 528 49 536 59 538 c 0
 61 538 63 539 65 539 c 0xb8
 88 539 101 511 122 511 c 2
 124 511 l 2
 141 512 161 535 178 541 c 0
 206 551 234 557 263 557 c 0
 301 557 338 547 371 523 c 0
 416 490 452 403 452 325 c 0
 452 271 435 223 392 201 c 0
 368 189 344 185 320 185 c 0
 272 185 224 202 174 203 c 1
EndSplineSet
Validated: 1
EndChar

StartChar: I
Encoding: 73 73 80
Width: 297
VWidth: 250
Flags: W
HStem: 197 21G<123 153.5> 828 20G<113.5 138>
VStem: 111 59<465.004 772.336> 119 60<271.679 586.114>
LayerCount: 2
Back
Fore
SplineSet
65 842 m 0xe0
 82 846 103 848 124 848 c 0
 152 848 182 845 205 841 c 0
 221 838 242 833 248 815 c 0
 249 811 250 808 250 805 c 0
 250 772 183 795 177 762 c 0
 172 730 170 697 170 663 c 0xe0
 170 595 177 526 177 462 c 0
 177 422 181 382 181 342 c 0
 181 332 179 320 179 308 c 0
 179 298 181 288 184 280 c 0
 194 257 232 266 240 239 c 0
 241 237 241 235 241 233 c 0
 241 218 222 209 209 205 c 0
 194 201 167 197 140 197 c 0
 106 197 72 204 64 227 c 0
 63 229 63 232 63 234 c 0
 63 259 117 270 119 305 c 0xd0
 120 324 120 343 120 362 c 0
 120 455 111 550 111 643 c 0
 111 659 113 684 113 709 c 0
 113 734 111 759 100 773 c 0
 87 790 60 788 49 807 c 0
 47 811 45 816 45 820 c 0
 45 831 53 839 65 842 c 0xe0
EndSplineSet
Validated: 1
EndChar

StartChar: plus
Encoding: 43 43 81
Width: 586
VWidth: 250
Flags: W
HStem: 347 86<64.6005 160.386> 350 66<110.891 262.129> 354 70<326.774 529.44> 362 56<110.891 263>
VStem: 251 71<421.529 621.778> 263 85<159.191 253.019>
LayerCount: 2
Back
Fore
SplineSet
532 408 m 0x28
 535 403 536 397 536 393 c 0
 536 359 477 355 454 355 c 0
 448 355 440 354 434 354 c 0x28
 391 354 363 361 325 363 c 1
 331 327 340 297 342 258 c 0
 343 245 347 226 348 207 c 0
 348 205 348 202 348 200 c 0
 348 180 344 161 327 154 c 0
 323 152 318 150 314 150 c 0
 313 150 313 150 312 150 c 0
 289 150 263 171 263 195 c 0
 263 216 276 233 276 254 c 0
 276 266 276 280 275 292 c 0
 274 318 271 341 269 362 c 1x14
 232 358 201 350 161 350 c 0x44
 148 350 129 347 110 347 c 0
 87 347 65 352 58 371 c 0
 56 375 55 380 55 384 c 0
 55 407 77 432 100 433 c 0x84
 122 433 139 418 161 417 c 0
 173 417 187 416 199 416 c 0x44
 222 416 243 417 263 418 c 1x14
 260 443 258 470 256 501 c 0
 256 505 255 510 255 514 c 0
 255 522 253 536 252 553 c 0
 252 562 251 572 251 580 c 0
 251 602 254 619 265 625 c 0
 270 628 276 630 280 630 c 0
 281 630 281 630 281 630 c 2
 314 630 321 573 322 550 c 0
 322 544 324 536 324 530 c 0
 324 522 325 514 325 507 c 0
 325 476 321 451 321 421 c 1
 348 423 375 424 408 424 c 0
 412 424 417 424 421 424 c 0
 429 424 444 425 461 425 c 0
 495 425 525 424 532 408 c 0x28
EndSplineSet
Validated: 1
EndChar

StartChar: six
Encoding: 54 54 82
Width: 459
VWidth: 250
Flags: W
HStem: 211 81<169.292 299.524> 453 54<201.927 326.664> 663 59<188 309.691>
VStem: 54 49<404.95 571.236> 356 54<340.407 425.92>
LayerCount: 2
Back
Fore
SplineSet
246 451 m 0
 208 442 182 416 152 394 c 0
 139 385 121 379 121 359 c 0
 121 310 188 292 236 292 c 0
 248 292 259 293 267 295 c 0
 298 303 356 348 356 385 c 0
 356 426 299 453 261 453 c 0
 256 453 250 452 246 451 c 0
106 462 m 1
 162 481 210 507 262 507 c 0
 288 507 315 500 345 482 c 0
 391 454 410 419 410 383 c 0
 410 332 372 280 320 246 c 0
 298 232 273 213 246 211 c 0
 242 211 239 211 236 211 c 0
 183 211 145 247 112 285 c 0
 74 329 54 400 54 473 c 0
 54 562 84 653 148 694 c 0
 176 712 209 722 242 722 c 0
 271 722 301 714 325 697 c 0
 338 687 364 666 364 646 c 0
 364 644 364 641 363 639 c 0
 360 631 353 628 345 628 c 0
 341 628 337 629 333 630 c 0
 303 641 284 663 252 663 c 0
 250 663 248 663 246 663 c 0
 169 657 103 569 103 491 c 0
 103 481 104 472 106 462 c 1
EndSplineSet
Validated: 1
EndChar

StartChar: underscore
Encoding: 95 95 83
Width: 641
VWidth: 250
Flags: W
HStem: 58 86<83.6005 179.386> 61 66<129.891 450.528> 65 70<221.728 560.102>
LayerCount: 2
Back
Fore
SplineSet
564 118 m 0x20
 567 113 568 107 568 103 c 0
 568 69 496 67 473 66 c 0
 467 66 459 65 453 65 c 0x20
 400 65 370 74 317 74 c 0
 314 74 312 74 309 74 c 0
 262 72 227 61 180 61 c 0x40
 167 61 148 58 129 58 c 0
 106 58 84 63 77 82 c 0
 75 86 74 91 74 95 c 0
 74 118 96 143 119 144 c 0x80
 141 144 158 129 180 128 c 0
 192 128 206 127 218 127 c 0x40
 298 127 347 135 427 135 c 0
 431 135 436 135 440 135 c 0
 448 135 463 136 480 136 c 0
 514 136 557 134 564 118 c 0x20
EndSplineSet
Validated: 1
EndChar

StartChar: N
Encoding: 78 78 84
Width: 690
VWidth: 250
Flags: W
HStem: 210 98<531.046 567.999> 819 20G<92.5 116 553 590>
VStem: 50 68<535.517 767.5> 82 72<220.903 502.474> 557 57<321.234 683.172> 568 61<311.41 512.625>
LayerCount: 2
Back
Fore
SplineSet
121 737 m 1xc4
 119 725 118 713 118 701 c 0xe4
 118 659 129 618 133 577 c 0
 141 498 137 417 145 338 c 0
 147 322 154 291 154 264 c 0
 154 238 147 216 121 216 c 0
 88 216 82 253 82 288 c 0xd0
 82 309 84 330 84 342 c 0
 84 469 64 589 52 717 c 0
 51 726 50 737 50 750 c 0
 50 785 56 827 84 838 c 0
 87 839 91 839 94 839 c 0
 138 839 190 748 212 721 c 0
 293 619 377 519 458 416 c 0
 479 389 521 314 557 308 c 0xe8
 558 308 558 308 559 308 c 0
 566 308 568 314 568 321 c 0xc4
 568 326 566 331 566 334 c 0
 561 366 557 396 557 429 c 0
 557 440 557 451 557 462 c 0
 557 562 556 664 540 762 c 0
 538 773 535 791 535 809 c 0
 535 832 541 852 565 852 c 0
 615 852 607 748 610 717 c 0
 614 679 614 639 614 601 c 0
 614 567 614 534 614 500 c 0xc8
 614 453 615 406 621 359 c 0
 624 339 629 312 629 286 c 0
 629 260 624 236 606 221 c 0
 596 213 586 210 576 210 c 0
 528 210 483 292 460 322 c 0
 404 393 340 456 284 527 c 0
 229 597 185 673 121 737 c 1xc4
EndSplineSet
Validated: 1
EndChar

StartChar: exclam
Encoding: 33 33 85
Width: 207
VWidth: 250
Flags: W
HStem: 215 58<62.2157 124.531>
VStem: 60 67<217.766 269.763> 64 51<446.287 632.103> 71 76<548.047 764.166>
LayerCount: 2
Back
Fore
SplineSet
81 215 m 0xc0
 65 221 60 231 60 241 c 0
 60 257 76 273 96 273 c 0
 101 273 106 272 111 270 c 0
 122 265 127 257 127 248 c 0
 127 231 111 215 92 215 c 0
 89 215 84 214 81 215 c 0xc0
76 446 m 0
 67 452 64 466 64 480 c 0
 64 493 64 509 64 517 c 0xa0
 64 544 71 605 71 635 c 0x90
 71 680 73 727 81 766 c 0
 84 782 99 795 115 795 c 0xa0
 121 795 126 794 132 790 c 0
 143 782 147 768 147 753 c 0x90
 147 740 143 727 143 717 c 0
 143 647 123 545 115 475 c 0xa0
 113 460 103 442 88 442 c 0
 84 442 81 443 76 446 c 0
EndSplineSet
Validated: 1
EndChar

StartChar: H
Encoding: 72 72 86
Width: 639
VWidth: 250
Flags: W
HStem: 207 21G<532 546> 499 57<215.781 473.155> 505 47<134.334 327.173 330.455 503.884>
VStem: 55 65<438.062 495.481 558.617 787.622> 72 70<222.362 433.108> 500 55<619.553 787.808> 518 66<211.746 385.035> 518 40<309.429 499.572 568.959 751.343>
LayerCount: 2
Back
Fore
SplineSet
74 788 m 0xb0
 79 790 83 791 87 791 c 0
 109 791 114 761 115 741 c 0
 117 714 120 688 120 661 c 0
 120 650 119 637 118 626 c 0
 117 617 114 605 114 594 c 0
 114 585 116 577 122 571 c 0
 138 553 174 552 200 552 c 0
 203 552 207 552 210 552 c 0
 214 552 216 552 220 552 c 0xb0
 285 552 350 553 415 556 c 0
 440 557 485 554 504 574 c 0
 512 583 515 600 515 618 c 0
 515 651 506 692 503 713 c 0
 502 723 500 738 500 752 c 0
 500 774 505 795 524 795 c 0
 530 795 537 792 546 788 c 0
 554 784 556 774 556 765 c 0
 556 761 555 757 555 754 c 0xd4
 555 724 559 693 559 663 c 0
 559 614 558 564 558 515 c 0xc1
 558 450 560 386 569 322 c 0
 572 301 584 272 584 248 c 0
 584 232 578 218 559 210 c 0
 553 208 548 207 544 207 c 0
 520 207 518 239 518 262 c 0
 518 264 518 266 518 268 c 2xc2
 518 434 l 2
 518 441 519 449 519 457 c 0
 519 473 517 491 508 500 c 0
 501 507 488 509 474 509 c 0
 456 509 436 505 424 504 c 0
 393 500 360 499 329 499 c 0xc1
 290 499 252 501 214 503 c 0
 204 503 187 505 171 505 c 0
 156 505 141 503 134 496 c 0
 123 485 119 470 119 451 c 0
 119 414 135 368 138 342 c 0
 139 331 142 309 142 287 c 0
 142 253 136 219 110 219 c 0
 105 219 100 220 94 222 c 0
 75 229 72 258 72 286 c 0xa9
 72 305 74 323 74 334 c 0
 74 445 64 556 61 667 c 0
 61 682 55 713 55 740 c 0
 55 762 59 782 74 788 c 0xb0
EndSplineSet
Validated: 1
EndChar

StartChar: a
Encoding: 97 97 87
Width: 545
VWidth: 250
Flags: W
HStem: 197 59<133.375 265.389 387.236 466.107> 202 66<409.801 497.908> 407 30<195.507 292.15> 527 61<166.672 281.808>
VStem: 59 60<271.328 355.599>
LayerCount: 2
Back
Fore
SplineSet
243 406 m 0xb8
 200 399 150 378 127 338 c 0
 121 328 119 319 119 310 c 0
 119 277 155 256 190 256 c 0
 194 256 198 256 202 257 c 0
 247 264 303 288 321 334 c 0
 323 339 323 343 323 347 c 0
 323 379 280 407 250 407 c 0
 247 407 245 406 243 406 c 0xb8
321 433 m 1
 318 479 277 527 229 527 c 0
 225 527 222 527 218 526 c 0
 201 523 171 502 149 502 c 0
 139 502 131 506 127 519 c 0
 126 521 125 524 125 526 c 0
 125 557 191 583 214 587 c 0
 217 588 220 588 223 588 c 0
 267 588 330 540 349 507 c 0
 380 454 370 385 377 326 c 0
 379 309 377 283 387 269 c 0
 392 263 399 261 409 261 c 0
 426 261 448 268 467 268 c 0
 485 268 501 261 501 236 c 0
 501 210 469 202 448 202 c 0
 446 202 445 202 443 202 c 0x78
 399 202 356 211 337 256 c 1
 311 247 299 223 276 210 c 0
 259 200 234 200 214 198 c 0
 202 197 187 197 173 197 c 0
 146 197 119 199 99 213 c 0
 72 232 59 264 59 297 c 0
 59 334 74 372 99 394 c 0
 139 429 179 437 222 437 c 0
 253 437 286 433 321 433 c 1
EndSplineSet
Validated: 1
EndChar

StartChar: C
Encoding: 67 67 88
Width: 593
VWidth: 250
Flags: W
HStem: 210 62<258.029 434.293> 785 60<222.52 388.354>
VStem: 47 58<438.683 649.12> 463 71<298.296 366.666>
LayerCount: 2
Back
Fore
SplineSet
466 795 m 1
 469 815 479 831 492 831 c 0
 500 831 509 825 517 811 c 0
 525 797 536 761 536 731 c 0
 536 708 529 689 508 689 c 0
 506 689 505 689 503 689 c 0
 470 693 445 728 420 746 c 0
 386 770 345 785 304 785 c 0
 270 785 235 775 206 752 c 0
 138 698 105 620 105 543 c 0
 105 464 139 385 206 329 c 0
 238 303 275 278 317 273 c 0
 325 272 333 272 341 272 c 0
 385 272 437 283 463 317 c 0
 477 335 477 367 496 379 c 0
 501 382 505 384 509 384 c 0
 524 384 534 364 534 349 c 0
 534 247 416 210 338 210 c 0
 327 210 317 210 306 210 c 0
 291 210 277 211 264 217 c 0
 136 280 47 416 47 554 c 0
 47 614 64 674 101 729 c 0
 128 770 175 831 227 840 c 0
 246 843 267 845 288 845 c 0
 314 845 340 842 363 834 c 0
 398 822 429 798 466 795 c 1
EndSplineSet
Validated: 1
EndChar

StartChar: dollar
Encoding: 36 36 89
Width: 561
VWidth: 250
Flags: W
HStem: 211 59<324 386.998> 553 55<291 359.708>
VStem: 52 53<679.806 804.442> 218 67<624.559 841 900 952.986> 241 50<348.254 553 621 832.743> 453 57<337.701 475.341>
LayerCount: 2
Back
Fore
SplineSet
213 907 m 0xec
 213 931 223 957 252 957 c 0
 272 957 280 927 283 895 c 1
 318 890 351 883 379 874 c 0
 391 870 435 849 435 829 c 0
 435 824 433 819 427 815 c 0
 423 812 416 811 410 811 c 0
 387 811 354 827 337 831 c 0
 321 835 303 839 285 841 c 1
 285 831 285 822 285 817 c 0xf4
 286 786 291 659 291 627 c 2
 291 608 l 1
 346 595 401 582 444 543 c 0
 488 504 510 446 510 390 c 0
 510 314 469 241 383 221 c 0
 368 217 347 213 324 211 c 1
 324 210 l 2
 324 186 317 159 290 159 c 0
 271 159 261 183 257 210 c 1
 240 211 225 213 214 219 c 0
 182 235 153 272 128 297 c 0
 113 312 64 361 64 395 c 0
 64 405 68 414 79 420 c 0
 83 423 87 423 91 423 c 0
 122 423 144 352 160 334 c 0
 184 309 217 290 252 279 c 1
 252 280 252 280 252 281 c 0
 248 344 245 454 241 562 c 1
 186 571 132 583 96 626 c 0
 67 660 52 708 52 754 c 0
 52 819 84 882 160 896 c 0
 176 899 194 900 213 900 c 1
 213 902 213 905 213 907 c 0xec
218 843 m 1
 157 839 105 813 105 735 c 0
 105 683 151 653 193 636 c 0
 208 630 223 625 238 621 c 1
 234 697 230 768 222 813 c 0
 221 820 219 830 218 843 c 1
316 270 m 1
 369 272 418 297 440 355 c 0
 446 371 451 390 452 408 c 0
 452 410 453 413 453 415 c 0
 453 465 415 499 374 524 c 0
 350 539 321 547 291 553 c 1
 291 552 l 2xec
 291 484 304 342 315 277 c 0
 315 275 316 272 316 270 c 1
EndSplineSet
Validated: 1
EndChar

StartChar: colon
Encoding: 58 58 90
Width: 199
VWidth: 250
Flags: W
HStem: 218 58<72.1713 134.838> 436 58<64.1713 126.838>
VStem: 62 67<439.237 492.922> 70 67<221.237 274.922>
LayerCount: 2
Back
Fore
SplineSet
92 276 m 0xd0
 95 277 99 278 102 278 c 0
 121 278 137 260 137 243 c 0
 137 234 132 226 121 221 c 0
 116 219 111 218 106 218 c 0
 86 218 70 234 70 250 c 0
 70 260 76 270 92 276 c 0xd0
84 494 m 0
 87 495 91 496 94 496 c 0
 113 496 129 478 129 461 c 0
 129 452 124 444 113 439 c 0
 108 437 103 436 98 436 c 0
 78 436 62 452 62 468 c 0xe0
 62 478 68 488 84 494 c 0
EndSplineSet
Validated: 1
EndChar

StartChar: b
Encoding: 98 98 91
Width: 514
VWidth: 250
Flags: W
HStem: 201 60<190.251 362.01> 511 49<186.57 342.537> 805 20G<77 90.5>
VStem: 68 61<276.28 428.266 531.945 811.251> 83 46<320.701 466.087 531 601.417> 406 54<303.99 444.549>
LayerCount: 2
Back
Fore
SplineSet
252 509 m 0xf4
 217 503 170 489 146 461 c 0
 129 442 129 420 129 396 c 0
 129 307 196 261 275 261 c 0
 289 261 304 262 318 265 c 0
 380 277 406 322 406 369 c 0
 406 437 353 511 275 511 c 0
 268 511 260 510 252 509 c 0xf4
129 260 m 1xec
 123 246 106 227 92 227 c 0
 85 227 78 231 73 243 c 0
 69 253 68 264 68 276 c 0xf4
 68 314 83 359 83 392 c 0xec
 83 508 63 620 63 736 c 0
 63 756 66 825 88 825 c 0
 93 825 98 822 105 814 c 0
 127 789 129 731 129 691 c 0
 129 684 129 677 129 671 c 2xf4
 129 671 127 642 127 609 c 0
 127 582 128 551 133 531 c 1
 176 542 218 560 262 560 c 0
 270 560 277 559 285 558 c 0
 331 551 383 548 416 511 c 0
 446 478 460 432 460 386 c 0
 460 322 433 257 380 223 c 0
 355 207 318 201 284 201 c 0
 271 201 259 201 248 203 c 0
 206 209 163 235 129 260 c 1xec
EndSplineSet
Validated: 1
EndChar

StartChar: five
Encoding: 53 53 92
Width: 480
VWidth: 250
Flags: W
HStem: 216 61<184.58 337.402> 482 64<125.231 304.881> 685 49<138.659 331.637>
VStem: 56 70<536.516 676.76> 64 62<536 671.923> 365 66<303.715 417.219>
LayerCount: 2
Back
Fore
SplineSet
126 536 m 1xec
 153 542 181 546 208 546 c 0
 278 546 344 522 389 462 c 0
 411 433 431 376 431 325 c 0
 431 286 419 249 389 230 c 0
 369 217 338 220 315 218 c 0
 297 217 280 216 263 216 c 0
 217 216 174 223 134 254 c 0
 116 268 76 300 76 329 c 0
 76 335 78 340 81 345 c 0
 86 353 93 355 101 355 c 0
 114 355 129 347 138 340 c 0
 158 324 167 300 192 289 c 0
 210 282 232 277 255 277 c 0
 309 277 365 298 365 350 c 0
 365 359 363 369 360 379 c 0
 354 398 345 417 333 433 c 0
 305 470 270 482 231 482 c 0
 208 482 183 477 159 472 c 0
 142 468 116 458 95 458 c 0
 90 458 85 458 81 460 c 0
 63 467 60 492 60 510 c 0
 60 537 64 563 64 590 c 0
 64 595 64 601 64 606 c 0xec
 62 629 56 650 56 673 c 0
 56 679 56 686 57 692 c 0
 64 727 109 734 157 734 c 0
 197 734 239 729 262 729 c 0
 266 729 273 729 281 729 c 0
 304 729 332 728 332 709 c 0
 332 689 300 685 286 683 c 0
 279 682 272 681 265 681 c 0
 241 681 214 685 189 685 c 0
 170 685 152 683 138 677 c 0
 127 672 126 659 126 648 c 0
 126 646 126 645 126 643 c 0xf4
 126 621 123 595 123 571 c 0
 123 559 124 547 126 536 c 1xec
EndSplineSet
Validated: 1
EndChar

StartChar: asterisk
Encoding: 42 42 93
Width: 430
VWidth: 250
Flags: W
HStem: 444 81<282.94 358.67> 512 20G<101 113.5>
VStem: 171 86<483 591.497> 174 67<264.33 359 483 554.972>
LayerCount: 2
Back
Fore
SplineSet
145 422 m 1x90
 121 435 60 456 60 490 c 0
 60 495 61 502 65 508 c 0
 73 523 92 532 110 532 c 0
 117 532 123 531 129 528 c 0
 148 517 155 494 174 483 c 1
 174 487 174 490 174 495 c 0x50
 174 508 171 527 171 546 c 0
 171 573 179 601 208 601 c 0
 231 601 256 579 257 556 c 0x60
 257 534 242 517 241 495 c 0
 241 490 241 484 241 479 c 1
 258 489 272 501 293 513 c 0
 305 520 319 525 331 525 c 0
 342 525 352 521 359 509 c 0
 363 502 365 494 365 486 c 0
 365 470 358 452 345 444 c 0
 325 433 302 437 282 426 c 1
 295 418 305 413 325 402 c 0
 353 386 370 375 370 359 c 0
 370 354 368 348 364 341 c 0
 357 330 348 326 337 326 c 0
 318 326 297 338 284 345 c 0
 273 351 254 361 246 366 c 1
 246 364 l 2
 246 356 247 341 247 324 c 0
 247 281 244 259 213 259 c 0
 177 259 177 307 177 330 c 0
 177 336 176 344 176 350 c 0
 176 353 176 356 176 359 c 1
 166 353 155 347 138 337 c 0
 117 325 102 316 90 316 c 0
 80 316 73 321 66 333 c 0
 63 338 61 344 61 349 c 0
 61 373 92 391 109 401 c 0
 119 407 136 417 145 422 c 1x90
EndSplineSet
Validated: 1
EndChar

StartChar: percent
Encoding: 37 37 94
Width: 508
VWidth: 250
Flags: W
HStem: 232 62<355.424 404.66> 403 59<358.596 394.792> 484 59<106.596 142.792> 652 62<103.424 152.66> 836 20G<346 358>
VStem: 46 56<556.12 651.837> 154 57<547.94 650.867> 298 56<294.163 389.88> 316 70<735.528 849.939> 406 57<295.133 398.06>
LayerCount: 2
Back
Fore
SplineSet
136 485 m 0xfe40
 131 484 126 484 122 484 c 0
 102 484 92 492 83 517 c 0
 69 556 46 599 46 639 c 0
 46 660 54 680 82 699 c 0
 92 706 104 711 115 713 c 0
 117 713 119 714 121 714 c 0
 139 714 152 700 165 689 c 0
 191 666 211 637 211 605 c 0
 211 593 200 569 195 556 c 0
 179 513 187 492 136 485 c 0xfe40
102 616 m 0
 102 583 103 553 120 543 c 0
 121 543 121 543 122 543 c 0
 134 543 154 568 154 618 c 0
 154 638 148 652 124 652 c 0
 122 652 122 652 120 652 c 0
 106 651 102 633 102 616 c 0
388 461 m 0
 439 454 431 433 447 390 c 0
 452 377 463 353 463 341 c 0
 463 309 443 280 417 257 c 0
 404 246 391 232 373 232 c 0
 371 232 369 233 367 233 c 0
 356 235 344 240 334 247 c 0
 306 266 298 286 298 307 c 0xff40
 298 347 321 390 335 429 c 0
 344 454 354 462 374 462 c 0
 378 462 383 462 388 461 c 0
354 330 m 0
 354 313 358 295 372 294 c 0
 374 294 374 294 376 294 c 0
 400 294 406 308 406 328 c 0
 406 378 386 403 374 403 c 0
 373 403 373 403 372 403 c 0
 355 393 354 363 354 330 c 0
316 819 m 0xfec0
 323 837 336 856 356 856 c 0
 360 856 365 855 370 853 c 0
 382 849 386 837 386 822 c 0
 386 791 368 746 362 729 c 0
 352 700 313 579 302 549 c 0
 270 460 224 332 206 234 c 0
 200 200 193 130 152 130 c 0
 151 130 150 130 149 130 c 0
 131 130 125 144 125 163 c 0
 125 196 144 244 148 259 c 0
 182 374 279 628 301 747 c 0
 304 765 307 795 316 819 c 0xfec0
EndSplineSet
Validated: 1
EndChar

StartChar: B
Encoding: 66 66 95
Width: 643
VWidth: 250
Flags: W
HStem: 210 62<201.428 396.889> 214 48<243.375 502.525> 531 68<224.847 437.235> 540 52<195.057 278.292> 836 56<175.002 433.107>
VStem: 140 50<334.033 537.595 600.285 783.036> 498 64<653.26 785.949> 538 50<294.29 441.375>
LayerCount: 2
Back
Fore
SplineSet
214 830 m 0x2e
 201 828 181 828 175 814 c 0
 173 810 172 805 172 800 c 0
 172 786 178 770 180 758 c 0
 185 721 182 684 187 647 c 0
 187 644 188 641 188 637 c 0
 188 634 188 631 188 627 c 0
 188 617 188 606 193 600 c 0
 198 594 207 592 217 592 c 0x1e
 228 592 240 595 247 596 c 0
 267 599 286 599 306 599 c 0
 309 599 313 599 316 599 c 0
 339 599 363 599 386 603 c 0
 454 614 498 657 498 725 c 0
 498 744 497 770 483 784 c 0
 442 824 367 836 299 836 c 0
 268 836 238 833 214 830 c 0x2e
207 535 m 0
 189 525 194 498 192 482 c 0
 190 468 190 454 190 440 c 0
 190 407 193 375 193 342 c 2
 193 342 192 334 192 324 c 0
 192 310 194 291 201 283 c 0
 210 273 227 271 243 271 c 0
 251 271 259 272 266 272 c 0
 269 272 272 272 275 272 c 0x9d
 307 269 354 262 399 262 c 0
 440 262 479 268 505 285 c 0
 529 301 538 327 538 355 c 0
 538 396 519 442 501 470 c 0
 464 525 418 536 367 536 c 0
 339 536 309 532 279 531 c 0x6d
 264 531 242 540 224 540 c 0
 217 540 212 538 207 535 c 0
456 569 m 1
 489 548 526 521 548 490 c 0
 573 455 588 407 588 360 c 0
 588 304 566 250 514 224 c 0
 492 213 460 216 436 214 c 0x4d
 386 211 336 210 286 210 c 2
 251 210 l 2
 203 210 155 212 107 215 c 0
 90 217 63 217 56 235 c 0
 54 239 53 244 53 247 c 0
 53 281 134 271 143 309 c 0
 145 317 146 325 146 333 c 0
 146 355 141 379 140 400 c 0
 137 467 138 534 135 601 c 0
 132 659 139 737 115 791 c 0
 106 813 77 815 69 836 c 0
 68 839 67 841 67 844 c 0
 67 857 79 869 90 875 c 0
 121 890 171 890 205 890 c 0
 239 890 277 892 315 892 c 0
 374 892 434 886 481 858 c 0
 529 830 562 773 562 717 c 0x8e
 562 699 559 680 551 663 c 0
 533 622 488 599 456 569 c 1
EndSplineSet
Validated: 1
EndChar

StartChar: acute
Encoding: 180 180 96
Width: 318
VWidth: 250
Flags: W
HStem: 585 303
VStem: 182 81<801.385 882.669>
LayerCount: 2
Back
Fore
SplineSet
74 661 m 0
 82 676 91 689 95 696 c 2
 102 707 l 2
 117 733 127 740 147 774 c 0
 153 784 159 797 165 807 c 0
 175 827 171 849 182 868 c 0
 190 881 207 888 223 888 c 0
 231 888 239 887 246 883 c 0
 258 876 263 865 263 854 c 0
 263 842 258 828 251 816 c 0
 241 800 229 785 223 774 c 0
 198 731 202 745 185 715 c 0
 159 669 175 695 149 649 c 0
 146 644 141 637 138 632 c 0
 128 615 108 585 85 585 c 0
 80 585 76 586 71 589 c 0
 58 596 53 604 53 613 c 0
 53 625 62 640 74 661 c 0
EndSplineSet
Validated: 1
EndChar

StartChar: dieresis
Encoding: 168 168 97
Width: 410
VWidth: 250
Flags: W
HStem: 662 58<62.1713 124.838 280.171 342.838>
VStem: 60 67<665.237 718.922> 278 67<665.237 718.922>
LayerCount: 2
Back
Fore
SplineSet
300 720 m 0
 303 721 307 722 310 722 c 0
 329 722 345 704 345 687 c 0
 345 678 340 670 329 665 c 0
 324 663 319 662 314 662 c 0
 294 662 278 678 278 694 c 0
 278 704 284 714 300 720 c 0
82 720 m 0
 85 721 89 722 92 722 c 0
 111 722 127 704 127 687 c 0
 127 678 122 670 111 665 c 0
 106 663 101 662 96 662 c 0
 76 662 60 678 60 694 c 0
 60 704 66 714 82 720 c 0
EndSplineSet
Validated: 1
EndChar

StartChar: quoteleft
Encoding: 8216 8216 100
Width: 208
VWidth: 250
Flags: W
HStem: 635 207
VStem: 58 57<669.166 793.111>
LayerCount: 2
Back
Fore
SplineSet
134 835 m 0
 135 829 135 822 135 817 c 0
 135 784 115 765 115 733 c 0
 115 716 121 696 137 669 c 0
 139 666 139 663 139 660 c 0
 139 649 128 638 119 635 c 0
 111 632 103 634 93 640 c 0
 79 649 71 662 65 678 c 0
 60 692 58 707 58 722 c 0
 58 743 62 763 70 778 c 0
 76 790 111 842 127 842 c 0
 130 842 133 841 134 835 c 0
EndSplineSet
Validated: 1
EndChar

StartChar: quotedblleft
Encoding: 8220 8220 101
Width: 332
VWidth: 250
Flags: W
HStem: 635 207
VStem: 58 57<669.166 793.111> 182 57<669.166 793.111>
LayerCount: 2
Back
Fore
SplineSet
258 835 m 0
 259 829 259 822 259 817 c 0
 259 784 239 765 239 733 c 0
 239 716 245 696 261 669 c 0
 263 666 263 663 263 660 c 0
 263 649 252 638 243 635 c 0
 235 632 227 634 217 640 c 0
 203 649 195 662 189 678 c 0
 184 692 182 707 182 722 c 0
 182 743 186 763 194 778 c 0
 200 790 235 842 251 842 c 0
 254 842 257 841 258 835 c 0
134 835 m 0
 135 829 135 822 135 817 c 0
 135 784 115 765 115 733 c 0
 115 716 121 696 137 669 c 0
 139 666 139 663 139 660 c 0
 139 649 128 638 119 635 c 0
 111 632 103 634 93 640 c 0
 79 649 71 662 65 678 c 0
 60 692 58 707 58 722 c 0
 58 743 62 763 70 778 c 0
 76 790 111 842 127 842 c 0
 130 842 133 841 134 835 c 0
EndSplineSet
Validated: 1
EndChar

StartChar: endash
Encoding: 8211 8211 102
Width: 529
VWidth: 250
Flags: W
HStem: 377 86<57.6005 184.436> 379 66<94.0226 396.205>
LayerCount: 2
Back
Fore
SplineSet
477 436 m 0x40
 480 431 481 425 481 421 c 0
 481 387 413 382 390 382 c 0
 384 382 376 381 370 381 c 0
 317 381 333 383 280 383 c 0
 277 383 275 383 272 383 c 0
 225 381 194 379 147 379 c 0x40
 134 379 122 377 103 377 c 0
 80 377 58 382 51 401 c 0
 49 405 48 410 48 414 c 0
 48 437 70 463 93 463 c 0x80
 115 463 125 447 147 446 c 0
 159 446 173 445 185 445 c 0
 265 445 264 451 344 451 c 0
 348 451 353 451 357 451 c 0
 365 451 380 452 397 452 c 0
 431 452 470 452 477 436 c 0x40
EndSplineSet
Validated: 1
EndChar

StartChar: emdash
Encoding: 8212 8212 103
Width: 739
VWidth: 250
Flags: W
HStem: 377 86<57.6005 205.436> 381 70<94.0378 205.436 209.778 678.113> 390 55<103.901 507.502>
LayerCount: 2
Back
Fore
SplineSet
687 433 m 0x40
 690 428 691 422 691 418 c 0
 691 384 553 382 530 382 c 0
 524 382 516 381 510 381 c 0x40
 457 381 385 390 332 390 c 0
 329 390 327 390 324 390 c 0x20
 277 388 215 379 168 379 c 0
 155 379 122 377 103 377 c 0
 80 377 58 382 51 401 c 0
 49 405 48 410 48 414 c 0
 48 437 70 463 93 463 c 0x80
 115 463 146 447 168 446 c 0
 180 446 194 445 206 445 c 0x20
 286 445 404 451 484 451 c 0
 488 451 493 451 497 451 c 0
 505 451 520 452 537 452 c 0
 571 452 680 449 687 433 c 0x40
EndSplineSet
Validated: 1
EndChar

StartChar: periodcentered
Encoding: 183 183 104
Width: 191
VWidth: 250
Flags: W
HStem: 453 58<66.1713 128.838>
VStem: 64 67<456.237 509.922>
LayerCount: 2
Back
Fore
SplineSet
86 511 m 0
 89 512 93 513 96 513 c 0
 115 513 131 495 131 478 c 0
 131 469 126 461 115 456 c 0
 110 454 105 453 100 453 c 0
 80 453 64 469 64 485 c 0
 64 495 70 505 86 511 c 0
EndSplineSet
Validated: 1
EndChar

StartChar: ellipsis
Encoding: 8230 8230 123
Width: 427
VWidth: 250
Flags: W
HStem: 188 58<62.1713 124.838 182.171 244.838 302.171 364.838>
VStem: 60 67<191.237 244.922> 180 67<191.237 244.922> 300 67<191.237 244.922>
CounterMasks: 1 70
LayerCount: 2
Back
Fore
SplineSet
82 246 m 0
 85 247 89 248 92 248 c 0
 111 248 127 230 127 213 c 0
 127 204 122 196 111 191 c 0
 106 189 101 188 96 188 c 0
 76 188 60 204 60 220 c 0
 60 230 66 240 82 246 c 0
322 246 m 0
 325 247 329 248 332 248 c 0
 351 248 367 230 367 213 c 0
 367 204 362 196 351 191 c 0
 346 189 341 188 336 188 c 0
 316 188 300 204 300 220 c 0
 300 230 306 240 322 246 c 0
202 246 m 0
 205 247 209 248 212 248 c 0
 231 248 247 230 247 213 c 0
 247 204 242 196 231 191 c 0
 226 189 221 188 216 188 c 0
 196 188 180 204 180 220 c 0
 180 230 186 240 202 246 c 0
EndSplineSet
Validated: 1
EndChar

StartChar: twodotenleader
Encoding: 8229 8229 124
Width: 307
VWidth: 250
Flags: W
HStem: 188 58<62.1713 124.838 182.171 244.838>
VStem: 60 67<191.237 244.922> 180 67<191.237 244.922>
LayerCount: 2
Back
Fore
SplineSet
82 246 m 0
 85 247 89 248 92 248 c 0
 111 248 127 230 127 213 c 0
 127 204 122 196 111 191 c 0
 106 189 101 188 96 188 c 0
 76 188 60 204 60 220 c 0
 60 230 66 240 82 246 c 0
202 246 m 0
 205 247 209 248 212 248 c 0
 231 248 247 230 247 213 c 0
 247 204 242 196 231 191 c 0
 226 189 221 188 216 188 c 0
 196 188 180 204 180 220 c 0
 180 230 186 240 202 246 c 0
EndSplineSet
Validated: 1
EndChar
